<svg width="51" height="51" viewBox="0 0 51 51" fill="none" xmlns="http://www.w3.org/2000/svg">
<g clip-path="url(#clip0_2120_104904)">
<rect x="0.839355" y="0.268188" width="50" height="50" rx="16" fill="#33164C"/>
<mask id="mask0_2120_104904" style="mask-type:alpha" maskUnits="userSpaceOnUse" x="0" y="0" width="51" height="51">
<path d="M50.8394 25.2682C50.8394 11.4611 39.6465 0.268188 25.8394 0.268188C12.0322 0.268188 0.839355 11.4611 0.839355 25.2682C0.839355 39.0753 12.0322 50.2682 25.8394 50.2682C39.6465 50.2682 50.8394 39.0753 50.8394 25.2682Z" fill="white"/>
</mask>
<g mask="url(#mask0_2120_104904)">
<path d="M19.5894 0.268188H13.3394V6.51819H19.5894V0.268188Z" fill="#D3DBFF"/>
<path d="M32.0894 0.268188H25.8394V6.51819H32.0894V0.268188Z" fill="#33164C"/>
<path d="M44.5894 0.268188H38.3394V6.51819H44.5894V0.268188Z" fill="#33164C"/>
<path d="M13.3394 0.268188H7.08936V6.51819H13.3394V0.268188Z" fill="#33164C"/>
<path d="M25.8394 0.268188H19.5894V6.51819H25.8394V0.268188Z" fill="#33164C"/>
<path d="M38.3394 0.268188H32.0894V6.51819H38.3394V0.268188Z" fill="#33164C"/>
<path d="M50.8394 0.268188H44.5894V6.51819H50.8394V0.268188Z" fill="#FF877B"/>
<path d="M7.08936 6.51819H0.839355V12.7682H7.08936V6.51819Z" fill="#33164C"/>
<path d="M7.08936 12.7682H0.839355V19.0182H7.08936V12.7682Z" fill="#7E6692"/>
<path d="M7.08936 19.0182H0.839355V25.2682H7.08936V19.0182Z" fill="#33164C"/>
<path d="M7.08936 25.2682H0.839355V31.5182H7.08936V25.2682Z" fill="#33164C"/>
<path d="M7.08936 31.5182H0.839355V37.7682H7.08936V31.5182Z" fill="#33164C"/>
<path d="M7.08936 37.7682H0.839355V44.0182H7.08936V37.7682Z" fill="#D3DBFF"/>
<path d="M7.08936 44.0182H0.839355V50.2682H7.08936V44.0182Z" fill="#FF877B"/>
<path d="M19.5894 6.51819H13.3394V12.7682H19.5894V6.51819Z" fill="#33164C"/>
<path d="M19.5894 12.7682H13.3394V19.0182H19.5894V12.7682Z" fill="#33164C"/>
<path d="M19.5894 19.0182H13.3394V25.2682H19.5894V19.0182Z" fill="#33164C"/>
<path d="M19.5894 25.2682H13.3394V31.5182H19.5894V25.2682Z" fill="#7E6692"/>
<path d="M19.5894 31.5182H13.3394V37.7682H19.5894V31.5182Z" fill="#FF877B"/>
<path d="M19.5894 37.7682H13.3394V44.0182H19.5894V37.7682Z" fill="#33164C"/>
<path d="M19.5894 44.0182H13.3394V50.2682H19.5894V44.0182Z" fill="#D3DBFF"/>
<path d="M32.0894 6.51819H25.8394V12.7682H32.0894V6.51819Z" fill="#33164C"/>
<path d="M32.0894 12.7682H25.8394V19.0182H32.0894V12.7682Z" fill="#D3DBFF"/>
<path d="M32.0894 19.0182H25.8394V25.2682H32.0894V19.0182Z" fill="#33164C"/>
<path d="M32.0894 25.2682H25.8394V31.5182H32.0894V25.2682Z" fill="#33164C"/>
<path d="M32.0894 31.5182H25.8394V37.7682H32.0894V31.5182Z" fill="#FF877B"/>
<path d="M32.0894 37.7682H25.8394V44.0182H32.0894V37.7682Z" fill="#D3DBFF"/>
<path d="M32.0894 44.0182H25.8394V50.2682H32.0894V44.0182Z" fill="#7E6692"/>
<path d="M44.5894 6.51819H38.3394V12.7682H44.5894V6.51819Z" fill="#0D0D0D"/>
<path d="M44.5894 12.7682H38.3394V19.0182H44.5894V12.7682Z" fill="#33164C"/>
<path d="M44.5894 19.0182H38.3394V25.2682H44.5894V19.0182Z" fill="#7E6692"/>
<path d="M44.5894 25.2682H38.3394V31.5182H44.5894V25.2682Z" fill="#33164C"/>
<path d="M44.5894 31.5182H38.3394V37.7682H44.5894V31.5182Z" fill="#33164C"/>
<path d="M44.5894 37.7682H38.3394V44.0182H44.5894V37.7682Z" fill="#33164C"/>
<path d="M44.5894 44.0182H38.3394V50.2682H44.5894V44.0182Z" fill="#33164C"/>
<path d="M13.3394 6.51819H7.08936V12.7682H13.3394V6.51819Z" fill="#D3DBFF"/>
<path d="M13.3394 12.7682H7.08936V19.0182H13.3394V12.7682Z" fill="#33164C"/>
<path d="M13.3394 19.0182H7.08936V25.2682H13.3394V19.0182Z" fill="#7E6692"/>
<path d="M13.3394 25.2682H7.08936V31.5182H13.3394V25.2682Z" fill="#FF877B"/>
<path d="M13.3394 31.5182H7.08936V37.7682H13.3394V31.5182Z" fill="#33164C"/>
<path d="M13.3394 37.7682H7.08936V44.0182H13.3394V37.7682Z" fill="#33164C"/>
<path d="M13.3394 44.0182H7.08936V50.2682H13.3394V44.0182Z" fill="#33164C"/>
<path d="M25.8394 6.51819H19.5894V12.7682H25.8394V6.51819Z" fill="#7E6692"/>
<path d="M25.8394 12.7682H19.5894V19.0182H25.8394V12.7682Z" fill="#33164C"/>
<path d="M25.8394 19.0182H19.5894V25.2682H25.8394V19.0182Z" fill="#33164C"/>
<path d="M25.8394 25.2682H19.5894V31.5182H25.8394V25.2682Z" fill="#FF877B"/>
<path d="M25.8394 31.5182H19.5894V37.7682H25.8394V31.5182Z" fill="#FF877B"/>
<path d="M25.8394 37.7682H19.5894V44.0182H25.8394V37.7682Z" fill="#33164C"/>
<path d="M25.8394 44.0182H19.5894V50.2682H25.8394V44.0182Z" fill="#FF877B"/>
<path d="M38.3394 6.51819H32.0894V12.7682H38.3394V6.51819Z" fill="#33164C"/>
<path d="M38.3394 12.7682H32.0894V19.0182H38.3394V12.7682Z" fill="#33164C"/>
<path d="M38.3394 19.0182H32.0894V25.2682H38.3394V19.0182Z" fill="#FF877B"/>
<path d="M38.3394 25.2682H32.0894V31.5182H38.3394V25.2682Z" fill="#D3DBFF"/>
<path d="M38.3394 31.5182H32.0894V37.7682H38.3394V31.5182Z" fill="#D3DBFF"/>
<path d="M38.3394 37.7682H32.0894V44.0182H38.3394V37.7682Z" fill="#33164C"/>
<path d="M38.3394 44.0182H32.0894V50.2682H38.3394V44.0182Z" fill="#7E6692"/>
<path d="M50.8394 6.51819H44.5894V12.7682H50.8394V6.51819Z" fill="#33164C"/>
<path d="M50.8394 12.7682H44.5894V19.0182H50.8394V12.7682Z" fill="#FF877B"/>
<path d="M50.8394 19.0182H44.5894V25.2682H50.8394V19.0182Z" fill="#33164C"/>
<path d="M50.8394 25.2682H44.5894V31.5182H50.8394V25.2682Z" fill="#33164C"/>
<path d="M50.8394 31.5182H44.5894V37.7682H50.8394V31.5182Z" fill="#FF877B"/>
<path d="M50.8394 37.7682H44.5894V44.0182H50.8394V37.7682Z" fill="#7E6692"/>
<path d="M50.8394 44.0182H44.5894V50.2682H50.8394V44.0182Z" fill="#7E6692"/>
</g>
</g>
<defs>
<clipPath id="clip0_2120_104904">
<rect x="0.839355" y="0.268188" width="50" height="50" rx="16" fill="white"/>
</clipPath>
</defs>
</svg>
