<svg width="86" height="38" viewBox="0 0 86 38" fill="none" xmlns="http://www.w3.org/2000/svg">
<path d="M40.408 32V29.576L40.096 28.976V24.512C40.096 23.792 39.872 23.24 39.424 22.856C38.992 22.456 38.296 22.256 37.336 22.256C36.712 22.256 36.08 22.36 35.44 22.568C34.8 22.76 34.256 23.032 33.808 23.384L32.272 20.288C33.008 19.808 33.888 19.44 34.912 19.184C35.952 18.912 36.984 18.776 38.008 18.776C40.12 18.776 41.752 19.264 42.904 20.24C44.072 21.2 44.656 22.712 44.656 24.776V32H40.408ZM36.568 32.216C35.528 32.216 34.648 32.04 33.928 31.688C33.208 31.336 32.656 30.856 32.272 30.248C31.904 29.64 31.72 28.96 31.72 28.208C31.72 27.408 31.92 26.72 32.32 26.144C32.736 25.552 33.368 25.104 34.216 24.8C35.064 24.48 36.16 24.32 37.504 24.32H40.576V26.696H38.128C37.392 26.696 36.872 26.816 36.568 27.056C36.28 27.296 36.136 27.616 36.136 28.016C36.136 28.416 36.288 28.736 36.592 28.976C36.896 29.216 37.312 29.336 37.84 29.336C38.336 29.336 38.784 29.216 39.184 28.976C39.6 28.72 39.904 28.336 40.096 27.824L40.72 29.504C40.48 30.4 40.008 31.08 39.304 31.544C38.616 31.992 37.704 32.216 36.568 32.216ZM55.7183 32.216C54.5503 32.216 53.5743 31.976 52.7903 31.496C52.0223 31.016 51.4463 30.28 51.0623 29.288C50.6783 28.296 50.4863 27.024 50.4863 25.472C50.4863 23.952 50.6863 22.696 51.0863 21.704C51.5023 20.712 52.1023 19.976 52.8863 19.496C53.6703 19.016 54.6143 18.776 55.7183 18.776C56.9023 18.776 57.9743 19.048 58.9343 19.592C59.9103 20.136 60.6783 20.912 61.2383 21.92C61.8143 22.912 62.1023 24.096 62.1023 25.472C62.1023 26.864 61.8143 28.064 61.2383 29.072C60.6783 30.064 59.9103 30.84 58.9343 31.4C57.9743 31.944 56.9023 32.216 55.7183 32.216ZM47.5343 32V14.192H52.0943V21.176L51.8543 25.472L51.8783 29.768V32H47.5343ZM54.7583 28.592C55.2703 28.592 55.7263 28.472 56.1263 28.232C56.5423 27.992 56.8703 27.64 57.1103 27.176C57.3663 26.696 57.4943 26.128 57.4943 25.472C57.4943 24.816 57.3663 24.264 57.1103 23.816C56.8703 23.352 56.5423 23 56.1263 22.76C55.7263 22.52 55.2703 22.4 54.7583 22.4C54.2463 22.4 53.7823 22.52 53.3663 22.76C52.9663 23 52.6383 23.352 52.3823 23.816C52.1423 24.264 52.0223 24.816 52.0223 25.472C52.0223 26.128 52.1423 26.696 52.3823 27.176C52.6383 27.64 52.9663 27.992 53.3663 28.232C53.7823 28.472 54.2463 28.592 54.7583 28.592ZM64.2218 32V14.192H68.7818V32H64.2218ZM78.5613 32.216C77.0253 32.216 75.6813 31.928 74.5293 31.352C73.3933 30.76 72.5053 29.96 71.8652 28.952C71.2413 27.928 70.9293 26.768 70.9293 25.472C70.9293 24.176 71.2333 23.024 71.8413 22.016C72.4653 20.992 73.3213 20.2 74.4093 19.64C75.4973 19.064 76.7213 18.776 78.0813 18.776C79.3613 18.776 80.5293 19.04 81.5853 19.568C82.6413 20.08 83.4813 20.84 84.1053 21.848C84.7293 22.856 85.0413 24.08 85.0413 25.52C85.0413 25.68 85.0333 25.864 85.0173 26.072C85.0013 26.28 84.9853 26.472 84.9693 26.648H74.6733V24.248H82.5453L80.8173 24.92C80.8333 24.328 80.7213 23.816 80.4813 23.384C80.2573 22.952 79.9373 22.616 79.5213 22.376C79.1213 22.136 78.6493 22.016 78.1053 22.016C77.5613 22.016 77.0813 22.136 76.6653 22.376C76.2653 22.616 75.9533 22.96 75.7293 23.408C75.5053 23.84 75.3933 24.352 75.3933 24.944V25.64C75.3933 26.28 75.5213 26.832 75.7773 27.296C76.0493 27.76 76.4333 28.12 76.9293 28.376C77.4253 28.616 78.0173 28.736 78.7053 28.736C79.3453 28.736 79.8893 28.648 80.3373 28.472C80.8013 28.28 81.2573 27.992 81.7053 27.608L84.1053 30.104C83.4813 30.792 82.7133 31.32 81.8013 31.688C80.8893 32.04 79.8093 32.216 78.5613 32.216Z" fill="black"/>
<path d="M9.41488 0.577777C9.5223 0.234042 9.84064 0 10.2008 0H43.8567C44.419 0 44.8159 0.551163 44.6376 1.08446L41.8846 9.31812C41.7723 9.65397 41.4578 9.88039 41.1037 9.88039H7.62774C7.07227 9.88039 6.67618 9.34163 6.84186 8.81144L9.41488 0.577777Z" fill="#232222"/>
<path d="M6.12142 11.6933C6.22884 11.3495 6.54718 11.1155 6.90731 11.1155H27.3129C27.8357 11.1155 28.2261 11.5963 28.1187 12.108L26.3906 20.3416C26.3106 20.7229 25.9743 20.9959 25.5848 20.9959H4.33429C3.77881 20.9959 3.38272 20.4571 3.5484 19.9269L6.12142 11.6933Z" fill="#232222"/>
<path d="M2.83065 22.8145C2.93619 22.4679 3.25596 22.231 3.61831 22.231H15.0844C15.6333 22.231 16.0285 22.7579 15.8748 23.2849L13.4733 31.5185C13.3708 31.8698 13.0488 32.1114 12.6829 32.1114H1.11138C0.558427 32.1114 0.162656 31.5771 0.323715 31.0482L2.83065 22.8145Z" fill="#232222"/>
</svg>
