<svg width="456" height="160" viewBox="0 0 456 160" fill="none" xmlns="http://www.w3.org/2000/svg">
<path d="M46.8688 42.4035C47.1297 41.5685 47.903 41 48.7778 41H130.53C131.896 41 132.86 42.3388 132.427 43.6342L125.739 63.6342C125.467 64.45 124.703 65 123.843 65H42.5278C41.1785 65 40.2163 63.6913 40.6188 62.4035L46.8688 42.4035Z" fill="#555555"/>
<path d="M38.8688 69.4035C39.1297 68.5685 39.903 68 40.7778 68H90.344C91.6139 68 92.5622 69.1681 92.3014 70.4108L88.1037 90.4108C87.9093 91.3369 87.0925 92 86.1463 92H34.5278C33.1785 92 32.2163 90.6913 32.6188 89.4035L38.8688 69.4035Z" fill="#999999"/>
<path d="M30.8758 96.4175C31.1322 95.5754 31.9089 95 32.7891 95H60.6407C61.974 95 62.934 96.28 62.5607 97.56L56.7274 117.56C56.4785 118.413 55.6963 119 54.8074 119H26.6996C25.3565 119 24.3951 117.702 24.7863 116.417L30.8758 96.4175Z" fill="#CCCCCC"/>
<path d="M158.344 117V47.8601H200.677V59.2531H172.083V76.0075H197.103V87.4005H172.083V117H158.344ZM235.191 107.171C236.68 107.171 238.133 107.171 239.547 107.171C240.962 107.096 242.191 106.985 243.233 106.836V94.7725C242.34 94.6235 241.26 94.5118 239.994 94.4374C238.728 94.2885 237.574 94.214 236.532 94.214C235.117 94.214 233.739 94.3257 232.399 94.5491C231.058 94.698 229.867 94.9959 228.824 95.4426C227.856 95.8894 227.075 96.5224 226.479 97.3415C225.883 98.1606 225.585 99.2403 225.585 100.581C225.585 102.964 226.479 104.676 228.266 105.719C230.053 106.687 232.362 107.171 235.191 107.171ZM233.963 63.1625C238.281 63.1625 241.856 63.6837 244.685 64.7262C247.589 65.6942 249.898 67.1091 251.611 68.9707C253.323 70.7578 254.552 72.9917 255.296 75.6724C256.041 78.2787 256.413 81.22 256.413 84.4964V115.771C254.403 116.218 251.424 116.739 247.478 117.335C243.531 117.931 239.101 118.229 234.186 118.229C230.835 118.229 227.782 117.931 225.027 117.335C222.346 116.739 220.038 115.771 218.102 114.431C216.166 113.016 214.676 111.229 213.634 109.07C212.591 106.836 212.07 104.118 212.07 100.916C212.07 97.8627 212.666 95.2937 213.857 93.2087C215.049 91.1237 216.65 89.4483 218.66 88.1824C220.671 86.9165 222.979 86.0229 225.585 85.5017C228.192 84.906 230.909 84.6081 233.739 84.6081C237.313 84.6081 240.478 84.906 243.233 85.5017V83.8262C243.233 81.22 242.414 79.0605 240.776 77.3479C239.138 75.5607 236.308 74.6672 232.287 74.6672C229.681 74.6672 227.149 74.8533 224.692 75.2256C222.309 75.598 220.373 76.0447 218.884 76.566L216.985 65.5081C218.697 64.9124 221.117 64.3911 224.245 63.9443C227.372 63.4231 230.612 63.1625 233.963 63.1625ZM301.539 90.4163C301.539 85.5017 300.72 81.7413 299.081 79.135C297.518 76.5288 295.098 75.2256 291.821 75.2256C290.332 75.2256 288.843 75.449 287.353 75.8958C285.938 76.2681 284.71 76.7522 283.667 77.3479V105.83C284.71 106.054 285.79 106.203 286.906 106.277C288.098 106.352 289.103 106.389 289.922 106.389C293.497 106.389 296.326 105.197 298.411 102.815C300.496 100.357 301.539 96.2245 301.539 90.4163ZM315.501 90.7514C315.501 94.9214 314.942 98.7191 313.825 102.144C312.708 105.495 311.07 108.362 308.911 110.745C306.751 113.128 304.108 114.989 300.98 116.33C297.853 117.596 294.278 118.229 290.257 118.229C286.683 118.229 283.034 117.968 279.311 117.447C275.588 116.926 272.46 116.255 269.929 115.436V41.8285L283.667 39.4829V65.7315C285.603 64.8379 287.465 64.2422 289.252 63.9443C291.039 63.572 292.826 63.3859 294.614 63.3859C298.039 63.3859 301.055 64.056 303.661 65.3964C306.267 66.6623 308.427 68.5239 310.139 70.9812C311.926 73.364 313.267 76.2309 314.16 79.5818C315.054 82.9327 315.501 86.6559 315.501 90.7514ZM371.014 114.766C370.79 114.915 370.269 115.176 369.45 115.548C368.705 115.92 367.7 116.33 366.434 116.777C365.168 117.149 363.604 117.484 361.743 117.782C359.956 118.08 357.908 118.229 355.6 118.229C349.27 118.229 344.653 116.367 341.749 112.644C338.845 108.846 337.393 103.336 337.393 96.1128V51.5461H322.873V40.1531H351.132V97.1181C351.132 100.692 351.839 103.112 353.254 104.378C354.669 105.644 356.456 106.277 358.615 106.277C361.371 106.277 363.679 105.905 365.541 105.16C367.402 104.416 368.631 103.932 369.227 103.708L371.014 114.766ZM378.162 91.1982C378.162 86.5814 378.87 82.5231 380.284 79.0233C381.699 75.5235 383.561 72.6194 385.869 70.311C388.178 67.9282 390.821 66.141 393.8 64.9496C396.778 63.7582 399.831 63.1625 402.959 63.1625C410.703 63.1625 416.586 65.4708 420.607 70.0876C424.628 74.6299 426.638 81.2945 426.638 90.0812C426.638 90.9748 426.601 91.9056 426.527 92.8736C426.527 93.8417 426.489 94.6235 426.415 95.2193H392.348C392.348 98.6446 393.762 101.363 396.592 103.373C399.422 105.309 403.07 106.277 407.538 106.277C410.293 106.277 412.9 105.979 415.357 105.384C417.889 104.788 420.011 104.192 421.724 103.596L423.623 115.325C421.24 116.144 418.708 116.814 416.027 117.335C413.347 117.931 410.331 118.229 406.98 118.229C402.512 118.229 398.491 117.67 394.917 116.553C391.417 115.362 388.401 113.649 385.869 111.415C383.412 109.107 381.513 106.277 380.173 102.926C378.832 99.5754 378.162 95.666 378.162 91.1982ZM413.347 85.7251C413.347 84.3103 413.16 82.9699 412.788 81.704C412.416 80.3637 411.82 79.1722 411.001 78.1297C410.182 77.0872 409.139 76.2681 407.873 75.6724C406.608 75.0023 405.044 74.6672 403.182 74.6672C401.395 74.6672 399.831 74.965 398.491 75.5607C397.225 76.1564 396.145 76.9756 395.252 78.018C394.433 79.0605 393.762 80.252 393.241 81.5923C392.794 82.9327 392.497 84.3103 392.348 85.7251H413.347Z" fill="#D1D1D1"/>
</svg>
