<?xml version="1.0" standalone="no"?>
<!DOCTYPE svg PUBLIC "-//W3C//DTD SVG 20010904//EN"
 "http://www.w3.org/TR/2001/REC-SVG-20010904/DTD/svg10.dtd">
<svg version="1.0" xmlns="http://www.w3.org/2000/svg"
 width="96.000000pt" height="96.000000pt" viewBox="0 0 96.000000 96.000000"
 preserveAspectRatio="xMidYMid meet">

<g transform="translate(0.000000,96.000000) scale(0.100000,-0.100000)"
fill="#000000" stroke="none">
<path d="M693 883 c-29 -86 -40 -99 -97 -123 -75 -30 -74 -54 3 -82 50 -19 55
-24 79 -80 33 -76 56 -76 84 1 19 50 24 55 80 79 76 33 76 56 -1 84 -50 19
-55 24 -79 79 -26 61 -56 79 -69 42z m45 -108 c7 -14 23 -30 37 -37 14 -6 25
-14 25 -18 0 -4 -11 -12 -25 -18 -14 -7 -30 -23 -37 -37 -14 -31 -22 -31 -36
0 -7 14 -23 30 -37 37 -14 6 -25 14 -25 18 0 4 11 12 25 18 14 7 30 23 37 37
6 14 14 25 18 25 4 0 12 -11 18 -25z"/>
<path d="M243 740 c-82 -9 -126 -31 -155 -78 -46 -75 -47 -444 -2 -522 42 -70
128 -90 394 -90 267 0 352 20 394 91 23 39 43 253 32 342 -7 52 -10 58 -29 55
-21 -3 -22 -8 -27 -178 -7 -261 9 -250 -370 -250 -385 0 -370 -12 -370 290 0
154 3 199 16 225 23 49 65 65 172 65 103 0 122 5 122 30 0 31 -32 35 -177 20z"/>
</g>
</svg>
