<svg width="640" height="427" viewBox="0 0 640 427" fill="none" xmlns="http://www.w3.org/2000/svg">
<path fill-rule="evenodd" clip-rule="evenodd" d="M638.413 425C638.413 425 604.705 386.828 581.913 363.5C554.792 335.74 538.341 321.422 509.913 295C485.919 272.698 472.342 260.326 447.913 238.5C440.493 243.577 435.813 245.736 428.913 251.5C420.646 258.407 417.057 263.436 409.913 271.5C402.37 280.015 398.585 285.17 391.413 294C382.743 304.676 377.413 310 369.413 321.5C367.953 323.6 367.913 327.875 367.913 327.875C367.913 327.875 377.382 360.379 386.413 380C395.142 398.963 412.913 426.424 412.913 426.424L638.413 425ZM421.914 304.5C427.009 294.996 436.414 281 436.414 281C436.414 281 424.253 294.523 418.414 304.5C413.359 313.137 411.936 318.712 407.914 327.875C404.134 336.485 402.865 341.422 400.414 350.5C399.016 355.676 398.118 358.136 398.414 363.5C398.669 368.134 400.414 374.5 400.414 374.5C400.414 374.5 401.169 366.556 401.914 361.5C402.84 355.211 403.198 351.622 404.914 345.5C407.252 337.155 409.094 332.506 412.414 324.5C415.733 316.494 417.828 312.121 421.914 304.5Z" fill="#345732" fill-opacity="0.2"/>
<path d="M447.913 238.5L389.413 206C389.413 206 385.155 204.666 382.413 205C380.413 205.243 378.016 206.562 375.413 208C367.434 212.41 365.123 217.893 359.413 225C353.503 232.356 345.854 245 345.854 245L344.159 247.5L339.413 254.5L332.413 270L366.413 334.25L367.913 327.875C367.913 327.875 367.953 323.6 369.413 321.5C377.413 310 382.743 304.676 391.413 294C398.585 285.17 402.37 280.015 409.913 271.5C417.057 263.436 420.646 258.407 428.913 251.5C435.813 245.736 440.493 243.577 447.913 238.5Z" fill="#2E3C2D" fill-opacity="0.2"/>
<path fill-rule="evenodd" clip-rule="evenodd" d="M377.913 173.5C377.913 173.5 368.649 148.011 360.913 132.5C357.248 125.151 352.913 116 350.913 114C348.913 112 343.488 109.349 338.413 107C332.943 104.468 323.913 101.5 323.913 101.5L307.413 117L301.413 120.75C301.413 120.75 304.29 120.921 305.913 121.688C308.114 122.727 310.413 126 310.413 126L309.413 127.5C309.413 127.5 306.047 124.282 303.413 123C302.101 122.361 299.913 121.688 299.913 121.688L291.413 127L283.232 130C283.232 130 289.715 134.103 294.413 135C298.249 135.732 304.413 135 304.413 135V137C304.413 137 301.068 137.398 298.913 137.5C296.573 137.611 295.219 137.919 292.913 137.5C291.091 137.169 290.092 136.783 288.413 136C285.299 134.546 281.413 130.667 281.413 130.667L276.413 132.5C276.413 132.5 285.55 137.945 291.413 141.417C293.745 142.798 295.584 143.849 297.413 144.91C297.413 144.91 299.788 144.076 300.913 143C301.619 142.325 301.509 141.367 302.413 141C303.331 140.628 304.223 140.708 304.913 141.417C306.032 142.565 303.009 143.4 302.913 145C302.757 147.622 307.199 147.382 307.413 150C307.442 150.353 307.413 150.908 307.413 150.908C310.486 152.728 313.05 154.262 316.413 157C318.023 158.31 320.413 160.5 320.413 160.5C320.413 160.5 320.747 158.982 320.913 158C321.565 154.145 320.603 151.825 321.413 148C321.836 146.006 321.883 144.833 322.913 143C324.273 140.581 325.184 138.005 327.913 137.5C328.681 137.358 329.913 137.5 329.913 137.5C329.913 137.5 326.933 140.548 325.913 143C324.814 145.644 324.85 147.432 324.908 150.228L324.913 150.5C324.965 153.068 324.945 154.621 325.913 157C326.915 159.46 329.913 162.5 329.913 162.5C329.913 162.5 326.985 160.862 324.913 160.5C323.182 160.197 320.413 160.5 320.413 160.5C320.413 160.5 318.023 158.31 316.413 157C313.05 154.262 310.486 152.728 307.413 150.908L307.217 150.791C306.049 150.099 304.805 149.362 303.413 148.5C301.092 147.061 299.257 145.98 297.413 144.91C295.584 143.849 293.745 142.798 291.413 141.417C285.55 137.945 276.413 132.5 276.413 132.5L270.913 133L264.913 130.5L264.163 129C264.163 129 261.158 128.37 259.413 129C256.867 129.919 256.779 132.312 254.913 134.274C251.533 137.831 249.783 140.266 245.413 142.5C243.192 143.636 239.413 144.696 239.413 144.696C239.413 144.696 247.072 148.148 251.913 150.5C260.241 154.546 265.617 155.802 272.913 161.5C276.724 164.475 279.302 165.931 281.913 170C283.852 173.021 284.331 175.077 285.413 178.5C287.145 183.979 286.282 187.49 287.913 193C289.478 198.286 290.735 201.182 293.413 206L293.697 206.51C297.517 213.385 299.953 217.769 306.413 222.5C312.061 226.635 316.29 227.236 322.913 229.5C328.472 231.4 332.607 230.122 337.413 233.5C341.971 236.703 345.854 245 345.854 245C345.854 245 353.503 232.356 359.413 225C365.123 217.893 367.434 212.41 375.413 208C378.016 206.562 380.413 205.243 382.413 205C385.155 204.666 389.413 206 389.413 206L387.998 202L385.875 196L379.683 178.5L377.913 173.5ZM327.913 121C329.171 118.45 329.913 114 329.913 114C329.913 114 330.147 116.758 329.913 118.5C329.585 120.948 329.101 122.334 327.913 124.5C326.974 126.212 325.566 126.66 324.913 128.5C324.183 130.561 324.913 134.1 324.913 134.1L320.913 132.5C320.913 132.5 322.234 129.044 323.413 127C324.877 124.463 326.618 123.627 327.913 121Z" fill="url(#paint0_linear_183_2110)" fill-opacity="0.2"/>
<path d="M266.913 104.5C262.227 106.843 259.331 107.683 254.913 110.5C249.074 114.224 246.502 117.302 241.413 122C236.341 126.683 232.413 130 228.913 134.5C227.834 135.887 228.913 139 228.913 139L237.913 144C237.913 144 242.018 142.729 244.413 141.417C248.761 139.036 250.436 136.532 253.913 133C255.95 130.932 256.147 128.381 258.913 127.5C260.588 126.967 263.413 127.5 263.413 127.5C263.413 127.5 263.781 118.277 264.913 112.5C265.533 109.34 266.132 107.624 266.913 104.5Z" fill="url(#paint1_linear_183_2110)" fill-opacity="0.2"/>
<path d="M252.413 153.5L237.913 146L230.413 141.417C230.413 141.417 226.231 144.587 223.913 147C221.991 149.002 219.959 149.779 219.413 152.5C218.984 154.641 219.141 156.226 220.413 158C222.105 160.359 224.511 160.5 227.413 160.5C231.913 160.5 233.913 160.481 237.913 159.5C240.733 158.808 242.226 158.096 244.913 157C247.906 155.779 252.413 153.5 252.413 153.5Z" fill="url(#paint2_linear_183_2110)" fill-opacity="0.2"/>
<path d="M247.913 159.5C244.088 161.248 237.913 163.5 237.913 163.5C237.913 163.5 236.666 166.524 236.913 168.5C237.067 169.725 237.054 170.613 237.913 171.5C238.903 172.52 240.82 172.839 241.413 172.5C244.913 170.5 246.427 169.137 249.913 167.5C252.934 166.082 254.741 165.535 257.913 164.5C260.616 163.618 262.085 162.785 264.913 162.5C266.516 162.338 269.038 162.5 269.038 162.5C269.038 162.5 267.798 161.219 266.913 160.5C263.03 157.343 254.913 156 254.913 156C254.913 156 250.693 158.23 247.913 159.5Z" fill="url(#paint3_linear_183_2110)" fill-opacity="0.2"/>
<path d="M279.913 176C279.913 176 277.589 171.133 275.413 168.5C273.599 166.304 270.101 163.5 270.101 163.5C270.101 163.5 266.919 163.652 264.913 164C262.112 164.487 260.606 165.087 257.913 166C254.926 167.012 253.256 167.632 250.413 169C246.943 170.67 243.913 173.5 241.913 174C240.947 174.241 239.879 174.241 238.913 174L234.413 178C233.047 179.757 231.813 180.464 230.913 182.5C230.186 184.147 229.755 185.207 229.913 187C230.106 189.175 230.926 190.402 232.413 192C234.081 193.791 235.6 194.204 237.913 195L237.964 195.018C240.546 195.906 242.212 196.48 244.913 196C245.917 195.822 247.413 195.25 247.413 195.25C247.413 195.25 249.13 195.153 249.913 194.5C252.913 192 254.789 190.843 257.913 188.5C261.038 186.157 262.502 184.4 265.913 182.5C267.975 181.352 269.135 180.613 271.413 180C275.05 179.021 281.056 180 281.056 180L279.913 176Z" fill="url(#paint4_linear_183_2110)" fill-opacity="0.2"/>
<path d="M272.413 181.5C270.558 182.008 269.61 182.595 267.913 183.5C265.189 184.953 263.939 186.225 261.413 188C258.665 189.932 257.118 191.007 254.413 193C252.841 194.158 251.881 194.712 250.413 196C249.168 197.093 247.413 199 247.413 199C247.413 199 245.758 200.298 245.413 201.5C245.166 202.362 245.186 202.928 245.413 203.796C245.735 205.022 246.381 205.591 247.312 206.411L247.413 206.5C249.128 208.011 250.657 208.138 252.913 208.5C256.622 209.094 258.933 208.412 262.413 207C264.276 206.244 265.171 205.504 266.913 204.5C268.886 203.363 270.077 202.847 271.913 201.5C273.143 200.598 274.913 199 274.913 199C274.913 199 274.076 196.538 274.413 195C274.832 193.093 277.03 192.915 277.413 191C277.913 188.5 278.063 187.558 278.913 185.5C279.59 183.862 281.056 181.5 281.056 181.5C281.056 181.5 275.669 180.609 272.413 181.5Z" fill="url(#paint5_linear_183_2110)" fill-opacity="0.2"/>
<path d="M276.913 199C276.913 199 277.147 200.843 277.413 202C278.024 204.65 278.439 206.215 279.913 208.5C280.889 210.013 281.432 210.977 282.913 212C285.057 213.481 286.839 213.104 289.413 213.5C291.51 213.822 294.822 214 294.822 214L288.913 204L286.413 197C286.413 197 284.241 196.674 282.913 197C281.385 197.375 280.957 198.691 279.413 199C278.456 199.191 276.913 199 276.913 199Z" fill="url(#paint6_linear_183_2110)" fill-opacity="0.2"/>
<path d="M285.521 194.5L283.913 190L281.913 183C281.913 183 280.662 186.341 279.913 188.5C279.306 190.25 278.413 192 278.413 193C278.413 194.294 279.831 194.583 281.056 195C282.717 195.566 285.521 194.5 285.521 194.5Z" fill="url(#paint7_linear_183_2110)" fill-opacity="0.2"/>
<path d="M274.913 199H276.913C276.913 199 278.456 199.191 279.413 199C280.957 198.691 281.385 197.375 282.913 197C284.241 196.674 286.413 197 286.413 197L285.521 194.5C285.521 194.5 282.717 195.566 281.056 195C279.831 194.583 278.413 194.294 278.413 193C278.413 192 279.306 190.25 279.913 188.5C280.662 186.341 281.913 183 281.913 183L281.485 181.5H281.056C281.056 181.5 279.59 183.862 278.913 185.5C278.063 187.558 277.913 188.5 277.413 191C277.03 192.915 274.832 193.093 274.413 195C274.076 196.538 274.913 199 274.913 199Z" fill="url(#paint8_linear_183_2110)" fill-opacity="0.2"/>
<path fill-rule="evenodd" clip-rule="evenodd" d="M218.913 167.5L223.913 163.5L218.413 170L208.913 178L208.163 179.75L180.913 176C180.913 176 47.9136 226.5 32.9133 235C31.88 235.586 31.2401 237.815 32.4133 238C38.5255 238.965 55.348 241.845 76.2565 245.423C120.344 252.97 182.599 263.626 200.913 266C202.85 266.251 204.66 266.359 206.414 265.5C231.914 253 276.413 234.676 276.413 234.676L285.413 230.678L303.413 222.68L307.913 227L311.413 229.25C311.413 229.25 241.414 259 203.913 275.5C200.476 277.013 198.113 277.645 194.413 277C175.793 273.752 138.352 266.191 101.872 258.824C54.1103 249.179 7.99434 239.866 7.91334 241C7.85017 241.884 7.86894 242.519 7.88993 243.229C7.90131 243.613 7.91334 244.02 7.91334 244.5C7.63886 245.049 7.31031 245.49 6.99958 245.908C6.4261 246.678 5.91334 247.367 5.91334 248.5C5.91334 250 142.413 272.953 142.413 272.953L192.913 282L203.913 280.5L314.913 231.5L320.413 235.5C320.413 235.5 318.197 235.031 316.913 235.5C302.218 240.87 276.98 252.469 253.117 263.436C234.761 271.872 217.218 279.935 205.913 284.5C201.151 286.423 198.011 287.131 192.913 286.5C144.413 280.5 115.587 274.973 66.4133 265.5C62.5905 264.764 58.999 264.078 55.5704 263.423C38.4603 260.157 25.4077 257.665 7.91334 253.5C4.94619 252.794 2.71599 251.443 1.91334 248.5C0.413098 243 0.770893 238 2.91357 237C16.8719 230.486 64.1243 211.655 109.926 193.402C137.951 182.234 165.433 171.282 184.413 163.5C186.852 162.5 218.913 167.5 218.913 167.5ZM24.4133 232.5C22.7143 233.575 21.8616 234.99 21.9133 237C21.9651 239.01 29.9136 241 30.9136 241C32.9133 241 26.1124 231.425 24.4133 232.5Z" fill="url(#paint9_linear_183_2110)" fill-opacity="0.2"/>
<path d="M236.913 173C235.397 172.134 234.913 169 234.913 169L235.05 168.5L224.595 178.5L234.413 178L238.913 174C238 173.605 237.778 173.494 236.913 173Z" fill="url(#paint10_linear_183_2110)" fill-opacity="0.6"/>
<path d="M388.798 181L379.683 178.5L385.875 196C385.875 196 391.455 194.5 393.913 192C395.091 190.802 396.407 190.18 396.413 188.5C396.419 187.19 395.661 186.576 394.913 185.5C393.222 183.065 388.798 181 388.798 181Z" fill="#345732" fill-opacity="0.2"/>
<path d="M400.413 188C399.916 186.052 399.33 184.927 397.913 183.5C396.497 182.073 388.798 181 388.798 181C388.798 181 393.222 183.065 394.913 185.5C395.661 186.576 396.419 187.19 396.413 188.5C396.407 190.18 395.091 190.802 393.913 192C391.455 194.5 385.875 196 385.875 196L387.998 202C387.998 202 393.475 199.446 396.413 197C398.111 195.587 399.62 195.062 400.413 193C401.114 191.178 400.896 189.892 400.413 188Z" fill="#345732" fill-opacity="0.2"/>
<path d="M7.91334 244.5L140.913 272.684L142.413 272.953L192.913 282L203.913 280.5L314.913 231.5L311.413 229.25C311.413 229.25 241.414 259 203.913 275.5C200.476 277.013 198.113 277.645 194.413 277C175.793 273.752 138.352 266.191 101.872 258.824C54.1103 249.179 7.99434 239.866 7.91334 241C7.85017 241.884 7.86894 242.519 7.88993 243.229C7.90131 243.613 7.91334 244.02 7.91334 244.5Z" fill="#181B18" fill-opacity="0.2"/>
<path d="M140.913 272.684L7.91334 244.5C7.63886 245.049 7.31031 245.49 6.99958 245.908C6.4261 246.678 5.91334 247.367 5.91334 248.5C5.91334 250 142.413 272.953 142.413 272.953L140.913 272.684Z" fill="#373F36" fill-opacity="0.2"/>
<path d="M237.913 195C235.6 194.204 234.081 193.791 232.413 192C230.926 190.402 230.106 189.175 229.913 187C229.755 185.207 230.186 184.147 230.913 182.5C231.813 180.464 233.047 179.757 234.413 178L224.595 178.5L220.413 182.5L218.913 185.5H216.913L209.913 192L191.913 208.5L184.413 212L188.413 206L199.413 191L207.413 181.5L208.163 179.75L180.913 176C180.913 176 47.9136 226.5 32.9133 235C31.88 235.586 31.2401 237.815 32.4133 238C38.5255 238.965 55.348 241.845 76.2565 245.423C120.344 252.97 182.599 263.626 200.913 266C202.85 266.251 204.66 266.359 206.414 265.5C231.914 253 276.413 234.676 276.413 234.676C276.413 234.676 259.656 231.504 248.913 229.5C239.419 227.729 234.162 226.328 224.595 225C214.813 223.642 209.102 224.592 199.413 222.68C192.053 221.227 180.913 217.5 180.913 217.5C180.913 217.5 200.745 218.753 213.413 220C222.606 220.905 227.756 221.469 236.913 222.68C247.882 224.131 254.004 225.159 264.913 227C272.934 228.353 285.413 230.678 285.413 230.678L303.413 222.68L295.413 215L294.822 214C294.822 214 291.51 213.822 289.413 213.5C286.839 213.104 285.057 213.481 282.913 212C281.432 210.977 280.889 210.013 279.913 208.5C278.439 206.215 278.024 204.65 277.413 202C277.147 200.843 276.913 199 276.913 199H274.913C274.913 199 273.143 200.598 271.913 201.5C270.077 202.847 268.886 203.363 266.913 204.5C265.171 205.504 264.276 206.244 262.413 207C258.933 208.412 256.622 209.094 252.913 208.5C250.657 208.138 249.128 208.011 247.413 206.5L247.312 206.411C246.381 205.591 245.735 205.022 245.413 203.796C245.186 202.928 245.166 202.362 245.413 201.5C245.758 200.298 247.413 199 247.413 199L248.913 195.5L247.413 195.25C247.413 195.25 245.917 195.822 244.913 196C242.212 196.48 240.546 195.906 237.964 195.018L237.913 195Z" fill="url(#paint11_diamond_183_2110)" fill-opacity="0.2"/>
<path d="M236.413 163.5H223.913L218.413 170L208.913 178L208.163 179.75L207.413 181.5L199.413 191L188.413 206L184.413 212L191.913 208.5L209.913 192L216.913 185.5H218.913L220.413 182.5L224.595 178.5L235.05 168.5L236.413 163.5Z" fill="url(#paint12_linear_183_2110)" fill-opacity="0.2"/>
<path d="M401.913 2.5C401.913 2.5 393.286 4.29965 387.913 6C376.836 9.50574 371.056 12.8313 360.913 18.5C350.466 24.339 345.059 28.4147 335.413 35.5C326.123 42.324 321.034 46.3479 312.413 54C304.049 61.4248 299.415 65.7043 291.913 74L291.281 74.6992C284.774 81.8927 280.892 86.1841 275.413 94.5C272.908 98.3031 271.169 100.298 269.413 104.5C268.079 107.693 267.588 109.606 266.913 113C265.96 117.799 266.051 125.5 266.051 125.5C266.051 125.5 285.24 107.099 297.413 95.5C308.211 85.2122 314.011 79.4784 324.913 69.5C333.789 61.3765 338.78 56.8325 347.913 49C355.808 42.2297 360.278 38.4789 368.413 32C380.58 22.3114 400.288 8.125 400.288 8.125L404.413 1L401.913 2.5Z" fill="url(#paint13_linear_183_2110)" fill-opacity="0.2"/>
<path d="M269.413 130.5C271.511 131.544 273.083 130.746 275.413 130.5C279.897 130.027 282.238 128.698 286.413 127C295.348 123.366 299.747 119.853 307.413 114C313.897 109.051 322.913 100 322.913 100H318.413C318.413 100 320.335 96.7483 322.413 96C324.067 95.4047 326.913 96 326.913 96L332.913 91C332.913 91 330.881 89.7368 329.413 89.5C328.45 89.3445 327.884 89.3922 326.913 89.5C325.072 89.7046 322.413 91 322.413 91C322.413 91 323.554 88.6923 324.913 88C326.479 87.2023 327.672 87.7637 329.413 88C331.433 88.2741 334.413 89.5 334.413 89.5L351.913 73C351.913 73 359.124 65.2483 363.413 60C367.293 55.2525 372.913 47.5 372.913 47.5L396.163 15.25L400.288 8.125C400.288 8.125 365.019 37.8734 342.913 57.5C325.342 73.1013 315.528 81.8987 298.413 98C285.97 109.706 266.913 128.357 266.913 128.357C266.913 128.357 268.262 129.927 269.413 130.5Z" fill="url(#paint14_linear_183_2110)" fill-opacity="0.2"/>
<path d="M447.913 238.5C472.342 260.326 485.919 272.698 509.913 295C538.341 321.422 554.792 335.74 581.913 363.5C604.705 386.828 638.413 425 638.413 425L412.913 426.424M447.913 238.5C425.068 225.808 389.413 206 389.413 206M447.913 238.5C440.493 243.577 435.813 245.736 428.913 251.5C420.646 258.407 417.057 263.436 409.913 271.5C402.37 280.015 398.585 285.17 391.413 294C382.743 304.676 377.413 310 369.413 321.5C367.953 323.6 367.913 327.875 367.913 327.875M447.913 238.5L389.413 206M389.413 206C389.413 206 385.155 204.666 382.413 205C380.413 205.243 378.016 206.562 375.413 208C367.434 212.41 365.123 217.893 359.413 225C353.503 232.356 345.854 245 345.854 245M389.413 206L387.998 202M323.913 101.5C323.913 101.5 332.943 104.468 338.413 107C343.488 109.349 348.913 112 350.913 114C352.913 116 357.248 125.151 360.913 132.5C368.649 148.011 377.913 173.5 377.913 173.5L379.683 178.5M323.913 101.5C323.913 101.5 334.472 92.5739 340.913 86.5C349.051 78.8271 353.535 74.4057 360.913 66C372.61 52.6751 378.576 44.5725 387.913 29.5C391.3 24.0335 392.942 20.815 396.163 15.25M323.913 101.5L307.413 117L301.413 120.75M404.413 1C404.413 1 394.241 2.31151 387.913 4C376.84 6.95472 371.042 10.1366 360.913 15.5C350.431 21.0508 345.021 25.0448 335.413 32C326.076 38.7593 321.083 42.903 312.413 50.5C303.896 57.964 299.085 62.1687 291.413 70.5C284.741 77.7465 280.918 81.8308 275.413 90C271.746 95.4434 269.871 98.6405 266.913 104.5M404.413 1L401.913 2.5C401.913 2.5 393.286 4.29965 387.913 6C376.836 9.50574 371.056 12.8313 360.913 18.5C350.466 24.339 345.059 28.4147 335.413 35.5C326.123 42.324 321.034 46.3479 312.413 54C304.049 61.4248 299.415 65.7043 291.913 74M404.413 1L400.288 8.125M266.913 104.5C262.227 106.843 259.331 107.683 254.913 110.5C249.074 114.224 246.502 117.302 241.413 122C236.341 126.683 232.413 130 228.913 134.5C227.834 135.887 228.913 139 228.913 139M266.913 104.5C266.132 107.624 265.533 109.34 264.913 112.5C263.781 118.277 263.413 127.5 263.413 127.5M228.913 140.5C228.913 140.5 222.414 146 218.913 148.5C216.447 150.262 216.337 153.024 216.913 156C217.397 158.499 218.472 159.853 220.413 161.5C221.614 162.518 223.913 163.5 223.913 163.5M228.913 140.5V139M228.913 140.5L230.413 141.417M223.913 163.5L218.913 167.5C218.913 167.5 186.852 162.5 184.413 163.5C165.433 171.282 137.951 182.234 109.926 193.402C64.1243 211.655 16.8719 230.486 2.91357 237C0.770893 238 0.413098 243 1.91334 248.5C2.71599 251.443 4.94619 252.794 7.91334 253.5C25.4077 257.665 38.4603 260.157 55.5704 263.423C58.999 264.078 62.5905 264.764 66.4133 265.5C115.587 274.973 144.413 280.5 192.913 286.5C198.011 287.131 201.151 286.423 205.913 284.5C217.218 279.935 234.761 271.872 253.117 263.436C276.98 252.469 302.218 240.87 316.913 235.5C318.197 235.031 320.413 235.5 320.413 235.5M223.913 163.5H236.413M223.913 163.5L218.413 170L208.913 178L208.163 179.75M320.413 235.5C320.413 235.5 331.993 247.08 339.413 254.5M320.413 235.5L314.913 231.5M339.413 254.5C336.68 260.553 335.147 263.947 332.413 270M339.413 254.5C341.267 251.766 344.159 247.5 344.159 247.5M339.413 254.5L344.159 247.5M339.413 254.5L332.413 270M332.413 270C331.828 275.467 328.347 279.137 330.913 284C340.414 302 350.914 314 361.413 336C363.294 339.94 363.787 342.65 363.413 347M332.413 270C345.691 295.091 366.413 334.25 366.413 334.25M332.413 270L366.413 334.25M363.413 347C366.538 355.396 368.185 360.143 371.413 368.5C376.966 382.876 378.853 391.571 386.413 405C391.382 413.825 400.913 426.5 400.913 426.5L412.913 426.424M363.413 347C364.585 342.021 366.413 334.25 366.413 334.25M345.854 245C345.854 245 341.971 236.703 337.413 233.5C332.607 230.122 328.472 231.4 322.913 229.5C316.29 227.236 312.061 226.635 306.413 222.5C299.953 217.769 297.517 213.385 293.697 206.51M345.854 245L344.159 247.5M293.413 206C290.735 201.182 289.478 198.286 287.913 193C286.282 187.49 287.145 183.979 285.413 178.5C284.331 175.077 283.852 173.021 281.913 170C279.302 165.931 276.724 164.475 272.913 161.5C265.617 155.802 260.241 154.546 251.913 150.5C247.072 148.148 239.413 144.696 239.413 144.696M293.413 206L293.697 206.51M293.413 206C293.509 206.172 293.603 206.342 293.697 206.51M237.913 144L228.913 139M237.913 144C237.913 144 242.018 142.729 244.413 141.417C248.761 139.036 250.436 136.532 253.913 133C255.95 130.932 256.147 128.381 258.913 127.5C260.588 126.967 263.413 127.5 263.413 127.5M237.913 144L239.413 144.696M230.413 141.417L237.913 146L252.413 153.5C252.413 153.5 247.906 155.779 244.913 157C242.226 158.096 240.733 158.808 237.913 159.5C233.913 160.481 231.913 160.5 227.413 160.5C224.511 160.5 222.105 160.359 220.413 158C219.141 156.226 218.984 154.641 219.413 152.5C219.959 149.779 221.991 149.002 223.913 147C226.231 144.587 230.413 141.417 230.413 141.417ZM237.913 163.5C237.913 163.5 244.088 161.248 247.913 159.5C250.693 158.23 254.913 156 254.913 156C254.913 156 263.03 157.343 266.913 160.5C267.798 161.219 269.038 162.5 269.038 162.5M237.913 163.5C237.913 163.5 236.666 166.524 236.913 168.5C237.067 169.725 237.054 170.613 237.913 171.5C238.903 172.52 240.82 172.839 241.413 172.5C244.913 170.5 246.427 169.137 249.913 167.5C252.934 166.082 254.741 165.535 257.913 164.5C260.616 163.618 262.085 162.785 264.913 162.5C266.516 162.338 269.038 162.5 269.038 162.5M237.913 163.5H236.413M314.913 231.5L311.413 229.25M314.913 231.5L203.913 280.5L192.913 282L142.413 272.953M314.913 231.5C314.913 231.5 321.13 232.257 324.913 233.5C326.911 234.156 328.012 234.602 329.913 235.5C333.002 236.959 334.755 237.856 337.413 240C340.48 242.473 344.159 247.5 344.159 247.5M276.413 132.5C276.413 132.5 285.55 137.945 291.413 141.417C293.745 142.798 295.584 143.849 297.413 144.91M276.413 132.5L270.913 133L264.913 130.5L264.163 129M276.413 132.5L281.413 130.667M320.413 160.5C320.413 160.5 318.023 158.31 316.413 157C313.05 154.262 310.486 152.728 307.413 150.908M320.413 160.5C320.413 160.5 320.747 158.982 320.913 158C321.565 154.145 320.603 151.825 321.413 148C321.836 146.006 321.883 144.833 322.913 143C324.273 140.581 325.184 138.005 327.913 137.5C328.681 137.358 329.913 137.5 329.913 137.5C329.913 137.5 326.933 140.548 325.913 143C324.814 145.644 324.85 147.432 324.908 150.228M320.413 160.5C320.413 160.5 323.182 160.197 324.913 160.5C326.985 160.862 329.913 162.5 329.913 162.5C329.913 162.5 326.915 159.46 325.913 157C324.945 154.621 324.965 153.068 324.913 150.5M324.913 150.5L324.908 150.228M324.913 150.5C324.912 150.408 324.91 150.318 324.908 150.228M263.413 127.5L264.163 129M264.163 129C264.163 129 261.158 128.37 259.413 129C256.867 129.919 256.779 132.312 254.913 134.274C251.533 137.831 249.783 140.266 245.413 142.5C243.192 143.636 239.413 144.696 239.413 144.696M291.913 74L291.281 74.6992M291.913 74C291.7 74.2362 291.489 74.4692 291.281 74.6992M372.913 47.5C372.913 47.5 367.293 55.2525 363.413 60C359.124 65.2483 351.913 73 351.913 73L334.413 89.5C334.413 89.5 331.433 88.2741 329.413 88C327.672 87.7637 326.479 87.2023 324.913 88C323.554 88.6923 322.413 91 322.413 91C322.413 91 325.072 89.7046 326.913 89.5C327.884 89.3922 328.45 89.3445 329.413 89.5C330.881 89.7368 332.913 91 332.913 91L326.913 96C326.913 96 324.067 95.4047 322.413 96C320.335 96.7483 318.413 100 318.413 100H322.913C322.913 100 313.897 109.051 307.413 114C299.747 119.853 295.348 123.366 286.413 127C282.238 128.698 279.897 130.027 275.413 130.5C273.083 130.746 271.511 131.544 269.413 130.5C268.262 129.927 266.913 128.357 266.913 128.357M372.913 47.5C372.913 47.5 387.084 27.8444 396.163 15.25M372.913 47.5L396.163 15.25M396.163 15.25C397.774 12.4675 400.288 8.125 400.288 8.125M396.163 15.25L400.288 8.125M400.288 8.125C400.288 8.125 365.019 37.8734 342.913 57.5C325.342 73.1013 315.528 81.8987 298.413 98C285.97 109.706 266.913 128.357 266.913 128.357M400.288 8.125C400.288 8.125 380.58 22.3114 368.413 32C360.278 38.4789 355.808 42.2297 347.913 49C338.78 56.8325 333.789 61.3765 324.913 69.5C314.011 79.4784 308.211 85.2122 297.413 95.5C285.24 107.099 266.051 125.5 266.051 125.5M266.913 128.357L265.913 127.5L266.051 125.5M266.051 125.5C266.051 125.5 265.96 117.799 266.913 113C267.588 109.606 268.079 107.693 269.413 104.5C271.169 100.298 272.908 98.3031 275.413 94.5C280.892 86.1841 284.774 81.8927 291.281 74.6992M269.038 162.5L270.101 163.5M270.101 163.5C270.101 163.5 273.599 166.304 275.413 168.5C277.589 171.133 279.913 176 279.913 176L281.056 180M270.101 163.5C270.101 163.5 266.919 163.652 264.913 164C262.112 164.487 260.606 165.087 257.913 166C254.926 167.012 253.256 167.632 250.413 169C246.943 170.67 243.913 173.5 241.913 174C240.947 174.241 239.879 174.241 238.913 174M236.413 163.5L235.05 168.5M281.056 180C281.056 180 275.05 179.021 271.413 180C269.135 180.613 267.975 181.352 265.913 182.5C262.502 184.4 261.038 186.157 257.913 188.5C254.789 190.843 252.913 192 249.913 194.5C249.13 195.153 247.413 195.25 247.413 195.25M281.056 180L281.485 181.5M237.913 195C235.6 194.204 234.081 193.791 232.413 192C230.926 190.402 230.106 189.175 229.913 187C229.755 185.207 230.186 184.147 230.913 182.5C231.813 180.464 233.047 179.757 234.413 178M237.913 195L237.964 195.018M237.913 195C237.93 195.006 237.947 195.012 237.964 195.018M234.413 178C236.171 176.438 237.156 175.562 238.913 174M234.413 178C230.579 178.195 224.595 178.5 224.595 178.5M234.413 178L238.913 174M234.413 178L224.595 178.5M238.913 174C238 173.605 237.778 173.494 236.913 173C235.397 172.134 234.913 169 234.913 169L235.05 168.5M281.485 181.5L281.913 183M281.485 181.5H281.056M247.413 199C247.413 199 249.168 197.093 250.413 196C251.881 194.712 252.841 194.158 254.413 193C257.118 191.007 258.665 189.932 261.413 188C263.939 186.225 265.189 184.953 267.913 183.5C269.61 182.595 270.558 182.008 272.413 181.5C275.669 180.609 281.056 181.5 281.056 181.5M247.413 199C247.413 199 245.758 200.298 245.413 201.5C245.166 202.362 245.186 202.928 245.413 203.796C245.735 205.022 246.381 205.591 247.312 206.411M247.413 199L248.913 195.5L247.413 195.25M247.413 206.5C249.128 208.011 250.657 208.138 252.913 208.5C256.622 209.094 258.933 208.412 262.413 207C264.276 206.244 265.171 205.504 266.913 204.5C268.886 203.363 270.077 202.847 271.913 201.5C273.143 200.598 274.913 199 274.913 199M247.413 206.5L247.312 206.411M247.413 206.5C247.379 206.47 247.345 206.44 247.312 206.411M274.913 199H276.913M274.913 199C274.913 199 274.076 196.538 274.413 195C274.832 193.093 277.03 192.915 277.413 191C277.913 188.5 278.063 187.558 278.913 185.5C279.59 183.862 281.056 181.5 281.056 181.5M276.913 199C276.913 199 277.147 200.843 277.413 202C278.024 204.65 278.439 206.215 279.913 208.5C280.889 210.013 281.432 210.977 282.913 212C285.057 213.481 286.839 213.104 289.413 213.5C291.51 213.822 294.822 214 294.822 214M276.913 199C276.913 199 278.456 199.191 279.413 199C280.957 198.691 281.385 197.375 282.913 197C284.241 196.674 286.413 197 286.413 197M294.822 214L288.913 204L286.413 197M294.822 214L295.413 215L303.413 222.68M286.413 197L285.521 194.5M285.521 194.5L283.913 190L281.913 183M285.521 194.5C285.521 194.5 282.717 195.566 281.056 195C279.831 194.583 278.413 194.294 278.413 193C278.413 192 279.306 190.25 279.913 188.5C280.662 186.341 281.913 183 281.913 183M247.413 195.25C247.413 195.25 245.917 195.822 244.913 196C242.212 196.48 240.546 195.906 237.964 195.018M235.05 168.5L224.595 178.5M303.413 222.68L307.913 227L311.413 229.25M303.413 222.68L285.413 230.678M208.163 179.75L207.413 181.5L199.413 191L188.413 206L184.413 212L191.913 208.5L209.913 192L216.913 185.5H218.913L220.413 182.5L224.595 178.5M208.163 179.75L180.913 176C180.913 176 47.9136 226.5 32.9133 235C31.88 235.586 31.2401 237.815 32.4133 238C38.5255 238.965 55.348 241.845 76.2565 245.423C120.344 252.97 182.599 263.626 200.913 266C202.85 266.251 204.66 266.359 206.414 265.5C231.914 253 276.413 234.676 276.413 234.676M7.91334 244.5C59.8531 255.507 140.913 272.684 140.913 272.684M7.91334 244.5C7.91334 244.02 7.90131 243.613 7.88993 243.229C7.86894 242.519 7.85017 241.884 7.91334 241C7.99434 239.866 54.1103 249.179 101.872 258.824C138.352 266.191 175.793 273.752 194.413 277C198.113 277.645 200.476 277.013 203.913 275.5C241.414 259 311.413 229.25 311.413 229.25M7.91334 244.5C7.63886 245.049 7.31031 245.49 6.99958 245.908C6.4261 246.678 5.91334 247.367 5.91334 248.5C5.91334 250 142.413 272.953 142.413 272.953M7.91334 244.5L140.913 272.684M140.913 272.684L142.413 272.953M285.413 230.678C285.413 230.678 272.934 228.353 264.913 227C254.004 225.159 247.882 224.131 236.913 222.68C227.756 221.469 222.606 220.905 213.413 220C200.745 218.753 180.913 217.5 180.913 217.5C180.913 217.5 192.053 221.227 199.413 222.68C209.102 224.592 214.813 223.642 224.595 225C234.162 226.328 239.419 227.729 248.913 229.5C259.656 231.504 276.413 234.676 276.413 234.676M285.413 230.678L276.413 234.676M379.683 178.5L388.798 181M379.683 178.5L385.875 196M387.998 202C387.998 202 393.475 199.446 396.413 197C398.111 195.587 399.62 195.062 400.413 193C401.114 191.178 400.896 189.892 400.413 188C399.916 186.052 399.33 184.927 397.913 183.5C396.497 182.073 388.798 181 388.798 181M387.998 202L385.875 196M388.798 181C388.798 181 393.222 183.065 394.913 185.5C395.661 186.576 396.419 187.19 396.413 188.5C396.407 190.18 395.091 190.802 393.913 192C391.455 194.5 385.875 196 385.875 196M366.413 334.25L367.913 327.875M367.913 327.875C367.913 327.875 377.382 360.379 386.413 380C395.142 398.963 412.913 426.424 412.913 426.424M283.232 130L291.413 127L299.913 121.688M283.232 130C283.232 130 289.715 134.103 294.413 135C298.249 135.732 304.413 135 304.413 135V137C304.413 137 301.068 137.398 298.913 137.5C296.573 137.611 295.219 137.919 292.913 137.5C291.091 137.169 290.092 136.783 288.413 136C285.299 134.546 281.413 130.667 281.413 130.667M283.232 130L281.413 130.667M299.913 121.688C299.913 121.688 302.101 122.361 303.413 123C306.047 124.282 309.413 127.5 309.413 127.5L310.413 126C310.413 126 308.114 122.727 305.913 121.688C304.29 120.921 301.413 120.75 301.413 120.75M299.913 121.688L301.413 120.75M297.413 144.91C299.257 145.98 301.092 147.061 303.413 148.5C304.805 149.362 306.049 150.099 307.217 150.791M297.413 144.91C297.413 144.91 299.788 144.076 300.913 143C301.619 142.325 301.509 141.367 302.413 141C303.331 140.628 304.223 140.708 304.913 141.417C306.032 142.565 303.009 143.4 302.913 145C302.757 147.622 307.199 147.382 307.413 150C307.442 150.353 307.413 150.908 307.413 150.908M307.413 150.908L307.217 150.791M307.413 150.908C307.348 150.869 307.283 150.83 307.217 150.791M329.913 114C329.913 114 329.171 118.45 327.913 121C326.618 123.627 324.877 124.463 323.413 127C322.234 129.044 320.913 132.5 320.913 132.5L324.913 134.1C324.913 134.1 324.183 130.561 324.913 128.5C325.566 126.66 326.974 126.212 327.913 124.5C329.101 122.334 329.585 120.948 329.913 118.5C330.147 116.758 329.913 114 329.913 114ZM24.4133 232.5C22.7143 233.575 21.8616 234.99 21.9133 237C21.9651 239.01 29.9136 241 30.9136 241C32.9133 241 26.1124 231.425 24.4133 232.5ZM436.414 281C436.414 281 427.009 294.996 421.914 304.5C417.828 312.121 415.733 316.494 412.414 324.5C409.094 332.506 407.252 337.155 404.914 345.5C403.198 351.622 402.84 355.211 401.914 361.5C401.169 366.556 400.414 374.5 400.414 374.5C400.414 374.5 398.669 368.134 398.414 363.5C398.118 358.136 399.016 355.676 400.414 350.5C402.865 341.422 404.134 336.485 407.914 327.875C411.936 318.712 413.359 313.137 418.414 304.5C424.253 294.523 436.414 281 436.414 281Z" stroke="black" stroke-opacity="0.2"/>
<defs>
<linearGradient id="paint0_linear_183_2110" x1="270" y1="140.5" x2="342.5" y2="307" gradientUnits="userSpaceOnUse">
<stop stop-color="#4D6E4B"/>
<stop offset="0.489502" stop-color="#31572E"/>
<stop offset="1" stop-color="#222922"/>
</linearGradient>
<linearGradient id="paint1_linear_183_2110" x1="273" y1="81.5" x2="197" y2="143.5" gradientUnits="userSpaceOnUse">
<stop stop-color="#5D805B"/>
<stop offset="1" stop-color="#3A4E39"/>
</linearGradient>
<linearGradient id="paint2_linear_183_2110" x1="230" y1="140.5" x2="204.5" y2="182" gradientUnits="userSpaceOnUse">
<stop stop-color="#4F6D4F"/>
<stop offset="1" stop-color="#5C7D5A"/>
</linearGradient>
<linearGradient id="paint3_linear_183_2110" x1="238" y1="133" x2="212" y2="230" gradientUnits="userSpaceOnUse">
<stop stop-color="#3C4E3C"/>
<stop offset="1" stop-color="#639263"/>
</linearGradient>
<linearGradient id="paint4_linear_183_2110" x1="262" y1="160.5" x2="228" y2="234" gradientUnits="userSpaceOnUse">
<stop stop-color="#435E42"/>
<stop offset="1" stop-color="#5D8D5D"/>
</linearGradient>
<linearGradient id="paint5_linear_183_2110" x1="258.5" y1="172.5" x2="247.5" y2="214" gradientUnits="userSpaceOnUse">
<stop stop-color="#3A4E39"/>
<stop offset="1" stop-color="#507450"/>
</linearGradient>
<linearGradient id="paint6_linear_183_2110" x1="281" y1="214" x2="286.5" y2="201" gradientUnits="userSpaceOnUse">
<stop stop-color="#4E6A4E"/>
<stop offset="1" stop-color="#456545"/>
</linearGradient>
<linearGradient id="paint7_linear_183_2110" x1="284" y1="182.5" x2="258.5" y2="225.5" gradientUnits="userSpaceOnUse">
<stop stop-color="#384C37"/>
<stop offset="1" stop-color="#569056"/>
</linearGradient>
<linearGradient id="paint8_linear_183_2110" x1="279.5" y1="180.5" x2="266.5" y2="210.5" gradientUnits="userSpaceOnUse">
<stop stop-color="#394D39"/>
<stop offset="1" stop-color="#3F763C"/>
</linearGradient>
<linearGradient id="paint9_linear_183_2110" x1="205" y1="37" x2="84" y2="267" gradientUnits="userSpaceOnUse">
<stop stop-color="#567555"/>
<stop offset="1" stop-color="#202F1F"/>
</linearGradient>
<linearGradient id="paint10_linear_183_2110" x1="250.5" y1="106.5" x2="175.5" y2="252.5" gradientUnits="userSpaceOnUse">
<stop stop-color="#CEDACD"/>
<stop offset="1" stop-color="#CEDACE"/>
</linearGradient>
<radialGradient id="paint11_diamond_183_2110" cx="0" cy="0" r="1" gradientUnits="userSpaceOnUse" gradientTransform="translate(187.5 214) rotate(174.583) scale(58.2602 100.596)">
<stop stop-color="white"/>
<stop offset="1" stop-color="#FFF2E1"/>
</radialGradient>
<linearGradient id="paint12_linear_183_2110" x1="259" y1="142.5" x2="178.5" y2="220" gradientUnits="userSpaceOnUse">
<stop stop-color="#4E834B"/>
<stop offset="1" stop-color="#95C692"/>
</linearGradient>
<linearGradient id="paint13_linear_183_2110" x1="370.5" y1="20" x2="261" y2="136" gradientUnits="userSpaceOnUse">
<stop stop-color="#2B402A"/>
<stop offset="1" stop-color="#A59D93"/>
</linearGradient>
<linearGradient id="paint14_linear_183_2110" x1="361.5" y1="35.5" x2="264" y2="135.5" gradientUnits="userSpaceOnUse">
<stop stop-color="#345732"/>
<stop offset="0.782229" stop-color="#5A5A52"/>
</linearGradient>
</defs>
</svg>
