<svg width="111" height="43" viewBox="0 0 111 43" fill="none" xmlns="http://www.w3.org/2000/svg">
<path d="M54.939 41.8803C53.5437 41.8803 52.4126 40.7492 52.4126 39.3539V39.1749C52.4126 38.8867 52.3432 38.6028 52.2103 38.3472C52.0774 38.0916 52.008 37.8077 52.008 37.5195V32.1683C52.008 31.2344 51.7174 30.5185 51.1364 30.0204C50.5761 29.5016 49.6733 29.2422 48.4282 29.2422C47.6189 29.2422 46.7992 29.3771 45.9691 29.6469C44.7931 29.9997 43.3401 29.6727 42.7944 28.5728L42.6961 28.3745C42.2194 27.4137 42.5341 26.2302 43.5274 25.8255C44.0714 25.6039 44.657 25.4147 45.2843 25.2578C46.6332 24.905 47.9717 24.7286 49.2998 24.7286C52.0391 24.7286 54.1558 25.3616 55.6499 26.6275C57.1648 27.8726 57.9223 29.8337 57.9223 32.5107V39.1254C57.9223 40.6469 56.6889 41.8803 55.1675 41.8803H54.939ZM47.4321 42.1604C46.0832 42.1604 44.9419 41.9321 44.008 41.4756C43.0742 41.019 42.3582 40.3965 41.8602 39.6079C41.3829 38.8193 41.1442 37.9374 41.1442 36.962C41.1442 35.9244 41.4036 35.0321 41.9224 34.285C42.462 33.5172 43.2817 32.9361 44.3816 32.5418C45.4814 32.1268 46.9029 31.9193 48.6461 31.9193H51.0897C51.9407 31.9193 52.6305 32.6091 52.6305 33.4601C52.6305 34.3111 51.9407 35.0009 51.0897 35.0009H49.4554C48.5009 35.0009 47.8264 35.1566 47.4321 35.4679C47.0586 35.7791 46.8718 36.1942 46.8718 36.713C46.8718 37.2318 47.069 37.6468 47.4632 37.9581C47.8575 38.2694 48.3971 38.425 49.0819 38.425C49.7252 38.425 50.3063 38.2694 50.8251 37.9581C51.3964 37.6065 52.4506 37.6557 52.6842 38.2846L52.7312 38.4112C52.7872 38.5619 52.7965 38.727 52.7483 38.8804C52.4198 39.9259 51.8306 40.7287 50.9807 41.2888C50.0884 41.8699 48.9055 42.1604 47.4321 42.1604ZM72.2702 42.1604C70.7553 42.1604 69.4894 41.8491 68.4725 41.2266C67.4764 40.604 66.7294 39.6494 66.2313 38.3628C65.7333 37.0761 65.4842 35.4264 65.4842 33.4134C65.4842 31.442 65.7436 29.8129 66.2624 28.5263C66.802 27.2397 67.5802 26.2851 68.597 25.6625C69.6139 25.0399 70.8383 24.7286 72.2702 24.7286C73.8058 24.7286 75.1962 25.0814 76.4413 25.787C77.7072 26.4926 78.7033 27.4991 79.4296 28.8064C80.1767 30.0931 80.5503 31.6287 80.5503 33.4134C80.5503 35.2188 80.1767 36.7752 79.4296 38.0826C78.7033 39.3693 77.7072 40.3757 76.4413 41.1021C75.1962 41.8076 73.8058 42.1604 72.2702 42.1604ZM64.4726 41.8803C62.9167 41.8803 61.6555 40.619 61.6555 39.0632V21.7403C61.6555 20.1071 62.9794 18.7832 64.6126 18.7832C66.2458 18.7832 67.5698 20.1071 67.5698 21.7403V27.8415L67.2585 33.4134L67.2897 38.9853V39.0632C67.2897 40.619 66.0284 41.8803 64.4726 41.8803ZM71.025 37.4601C71.6891 37.4601 72.2805 37.3044 72.7993 36.9931C73.3389 36.6819 73.7643 36.2253 74.0756 35.6235C74.4076 35.0009 74.5737 34.2642 74.5737 33.4134C74.5737 32.5626 74.4076 31.8466 74.0756 31.2656C73.7643 30.6637 73.3389 30.2072 72.7993 29.8959C72.2805 29.5846 71.6891 29.429 71.025 29.429C70.361 29.429 69.7592 29.5846 69.2196 29.8959C68.7008 30.2072 68.2754 30.6637 67.9434 31.2656C67.6321 31.8466 67.4764 32.5626 67.4764 33.4134C67.4764 34.2642 67.6321 35.0009 67.9434 35.6235C68.2754 36.2253 68.7008 36.6819 69.2196 36.9931C69.7592 37.3044 70.361 37.4601 71.025 37.4601ZM86.2564 41.8803C84.6232 41.8803 83.2993 40.5563 83.2993 38.9231V21.7403C83.2993 20.1071 84.6232 18.7832 86.2564 18.7832C87.8896 18.7832 89.2136 20.1071 89.2136 21.7403V38.9231C89.2136 40.5563 87.8896 41.8803 86.2564 41.8803ZM101.898 42.1604C99.9055 42.1604 98.1623 41.7869 96.6681 41.0398C95.1947 40.272 94.043 39.2344 93.2128 37.927C92.4036 36.5988 91.9989 35.0943 91.9989 33.4134C91.9989 31.7325 92.3932 30.2383 93.1818 28.931C93.9911 27.6028 95.1014 26.5756 96.5125 25.8493C97.9236 25.1022 99.5112 24.7286 101.275 24.7286C102.935 24.7286 104.45 25.0711 105.82 25.7559C107.189 26.4199 108.279 27.4057 109.088 28.7131C109.898 30.0204 110.302 31.608 110.302 33.4757C110.302 33.6832 110.292 33.9218 110.271 34.1916C110.239 34.6149 109.884 34.9387 109.459 34.9387H98.4113C97.5517 34.9387 96.8549 34.2419 96.8549 33.3823C96.8549 32.5227 97.5517 31.8259 98.4113 31.8259H105.19C105.579 31.8259 105.68 32.3645 105.317 32.5055C105.083 32.5967 104.831 32.419 104.81 32.1683C104.766 31.6203 104.625 31.1326 104.388 30.7053C104.097 30.1449 103.682 29.7092 103.143 29.3979C102.624 29.0866 102.012 28.931 101.306 28.931C100.601 28.931 99.9781 29.0866 99.4385 29.3979C98.9197 29.7092 98.5151 30.1553 98.2245 30.7364C97.934 31.2967 97.7888 31.9608 97.7888 32.7286V33.6313C97.7888 34.4614 97.9548 35.1773 98.2868 35.7791C98.6396 36.381 99.1376 36.8479 99.781 37.1799C100.424 37.4912 101.192 37.6468 102.084 37.6468C102.915 37.6468 103.62 37.5327 104.201 37.3044C105.294 36.8522 106.616 36.8502 107.436 37.7028L107.541 37.8115C108.412 38.7177 108.445 40.1829 107.373 40.8384C106.976 41.081 106.551 41.2934 106.1 41.4756C104.917 41.9321 103.516 42.1604 101.898 42.1604Z" fill="url(#paint0_linear_2028_2407)"/>
<path d="M12.2144 1.12543C12.3537 0.679603 12.7666 0.376049 13.2337 0.376049H56.8856C57.6149 0.376049 58.1297 1.09091 57.8984 1.7826L54.3278 12.4617C54.1821 12.8973 53.7742 13.191 53.3149 13.191H9.89644C9.17599 13.191 8.66226 12.4922 8.87714 11.8045L12.2144 1.12543Z" fill="url(#paint1_linear_2028_2407)"/>
<path d="M7.94273 15.5423C8.08205 15.0964 8.49494 14.7929 8.96203 14.7929H35.4282C36.1063 14.7929 36.6126 15.4165 36.4733 16.0802L34.232 26.7592C34.1282 27.2537 33.692 27.6078 33.1868 27.6078H5.62481C4.90435 27.6078 4.39062 26.909 4.60551 26.2213L7.94273 15.5423Z" fill="url(#paint2_linear_2028_2407)"/>
<path d="M3.67458 29.9666C3.81147 29.5171 4.22621 29.2098 4.69618 29.2098H19.5678C20.2797 29.2098 20.7923 29.8932 20.5929 30.5767L17.4782 41.2557C17.3452 41.7114 16.9276 42.0247 16.453 42.0247H1.44468C0.727496 42.0247 0.214179 41.3318 0.423073 40.6458L3.67458 29.9666Z" fill="url(#paint3_linear_2028_2407)"/>
<defs>
<linearGradient id="paint0_linear_2028_2407" x1="0.573446" y1="0.657998" x2="110.199" y2="41.7674" gradientUnits="userSpaceOnUse">
<stop stop-color="#D45C51"/>
<stop offset="1" stop-color="#33164C"/>
</linearGradient>
<linearGradient id="paint1_linear_2028_2407" x1="0.573446" y1="0.657998" x2="110.199" y2="41.7674" gradientUnits="userSpaceOnUse">
<stop stop-color="#D45C51"/>
<stop offset="1" stop-color="#33164C"/>
</linearGradient>
<linearGradient id="paint2_linear_2028_2407" x1="0.573446" y1="0.657998" x2="110.199" y2="41.7674" gradientUnits="userSpaceOnUse">
<stop stop-color="#D45C51"/>
<stop offset="1" stop-color="#33164C"/>
</linearGradient>
<linearGradient id="paint3_linear_2028_2407" x1="0.573446" y1="0.657998" x2="110.199" y2="41.7674" gradientUnits="userSpaceOnUse">
<stop stop-color="#D45C51"/>
<stop offset="1" stop-color="#33164C"/>
</linearGradient>
</defs>
</svg>
