<svg width="16" height="14" viewBox="0 0 16 14" fill="none" xmlns="http://www.w3.org/2000/svg">
<path d="M7.33301 3.33331L7.33301 12" stroke="#FDFDFD" stroke-width="1.5" stroke-linecap="round"/>
<path d="M7.33301 12C7.18481 12 6.88204 11.8386 6.27652 11.5159C5.66107 11.1879 4.81081 10.8614 3.72134 10.6565C2.4992 10.4267 1.88813 10.3118 1.61057 9.97252C1.33301 9.63323 1.33301 9.0898 1.33301 8.00292V3.73101C1.33301 2.54233 1.33301 1.94799 1.76548 1.58199C2.19795 1.21599 2.70575 1.31148 3.72134 1.50246C5.72606 1.87944 6.92088 2.66802 7.33301 3.12074C7.74514 2.66802 8.93996 1.87944 10.9447 1.50246C11.9603 1.31148 12.4681 1.21599 12.9005 1.58199C13.333 1.94799 13.333 2.54233 13.333 3.73101V5.66665" stroke="#FDFDFD" stroke-width="1.5" stroke-linecap="round" stroke-linejoin="round"/>
<path d="M10.2315 12.5705L10.0747 11.837H10.0747L10.2315 12.5705ZM9.42919 11.7682L10.1626 11.925L9.42919 11.7682ZM10.0135 10.0745L9.48313 9.54413L9.48313 9.54413L10.0135 10.0745ZM14.5305 8.31818L15.18 7.94318L14.5305 8.31818ZM14.5305 9.33203L15.18 9.70703L14.5305 9.33203ZM13.6815 7.46914L14.0565 6.81962L13.6815 7.46914ZM12.2187 7.86923L12.749 8.39956L12.2187 7.86923ZM12.6676 7.46914L12.2926 6.81962L12.6676 7.46914ZM14.1304 9.78097L13.6001 9.25064L11.3949 11.4559L11.9252 11.9862L12.4555 12.5165L14.6608 10.3113L14.1304 9.78097ZM10.0135 10.0745L10.5438 10.6048L12.749 8.39956L12.2187 7.86923L11.6884 7.3389L9.48313 9.54413L10.0135 10.0745ZM10.2315 12.5705L10.0747 11.837C9.95671 11.8623 9.86685 11.8814 9.79052 11.8956C9.7131 11.91 9.6714 11.915 9.65018 11.9164C9.62752 11.9178 9.65901 11.9127 9.71712 11.9277C9.74875 11.9359 9.78769 11.9498 9.82944 11.973C9.8717 11.9965 9.90965 12.0254 9.94193 12.0577L9.4116 12.5881L8.88127 13.1184C9.17257 13.4097 9.53205 13.4269 9.74539 13.4134C9.94527 13.4006 10.1827 13.3479 10.3883 13.3039L10.2315 12.5705ZM9.42919 11.7682L8.69577 11.6113C8.6518 11.817 8.59901 12.0544 8.5863 12.2543C8.57274 12.4676 8.58997 12.8271 8.88127 13.1184L9.4116 12.5881L9.94193 12.0577C9.97422 12.09 10.0032 12.128 10.0267 12.1702C10.0499 12.212 10.0638 12.2509 10.0719 12.2825C10.0869 12.3406 10.0818 12.3721 10.0833 12.3495C10.0846 12.3283 10.0897 12.2866 10.104 12.2091C10.1182 12.1328 10.1374 12.0429 10.1626 11.925L9.42919 11.7682ZM14.1304 7.86923L13.6001 8.39956C13.716 8.51548 13.7851 8.58487 13.8348 8.63931C13.8818 8.69078 13.8861 8.70202 13.881 8.69318L14.5305 8.31818L15.18 7.94318C15.0515 7.72052 14.8488 7.52699 14.6608 7.3389L14.1304 7.86923ZM14.1304 9.78097L14.6608 10.3113C14.8488 10.1232 15.0515 9.92969 15.18 9.70703L14.5305 9.33203L13.881 8.95703C13.8861 8.94818 13.8818 8.95943 13.8348 9.01089C13.7851 9.06534 13.716 9.13472 13.6001 9.25064L14.1304 9.78097ZM14.5305 8.31818L13.881 8.69318C13.9281 8.77481 13.9281 8.87539 13.881 8.95703L14.5305 9.33203L15.18 9.70703C15.4951 9.16129 15.4951 8.48891 15.18 7.94318L14.5305 8.31818ZM14.1304 7.86923L14.6608 7.3389C14.4727 7.15081 14.2791 6.94818 14.0565 6.81962L13.6815 7.46914L13.3065 8.11866C13.2976 8.11355 13.3089 8.11784 13.3603 8.16482C13.4148 8.21451 13.4842 8.28364 13.6001 8.39956L14.1304 7.86923ZM12.2187 7.86923L12.749 8.39956C12.8649 8.28364 12.9343 8.21451 12.9888 8.16482C13.0402 8.11784 13.0515 8.11355 13.0426 8.11866L12.6676 7.46914L12.2926 6.81962C12.07 6.94818 11.8764 7.15081 11.6884 7.3389L12.2187 7.86923ZM13.6815 7.46914L14.0565 6.81962C13.5107 6.50454 12.8384 6.50454 12.2926 6.81962L12.6676 7.46914L13.0426 8.11866C13.1243 8.07153 13.2248 8.07153 13.3065 8.11866L13.6815 7.46914ZM11.9252 11.9862L11.3949 11.4559C11.3095 11.5413 11.1805 11.6104 10.9482 11.6697C10.8317 11.6994 10.7048 11.7231 10.5546 11.749C10.4133 11.7734 10.2405 11.8016 10.0747 11.837L10.2315 12.5705L10.3883 13.3039C10.5166 13.2765 10.6474 13.2552 10.81 13.2271C10.9637 13.2006 11.1409 13.1686 11.3192 13.1231C11.6766 13.0318 12.1004 12.8717 12.4555 12.5165L11.9252 11.9862ZM9.42919 11.7682L10.1626 11.925C10.1981 11.7592 10.2262 11.5863 10.2506 11.445C10.2766 11.2948 10.3002 11.168 10.33 11.0515C10.3893 10.8192 10.4584 10.6902 10.5438 10.6048L10.0135 10.0745L9.48313 9.54413C9.12795 9.8993 8.96783 10.323 8.87659 10.6804C8.83106 10.8587 8.7991 11.0359 8.77254 11.1896C8.74445 11.3522 8.7232 11.4831 8.69577 11.6113L9.42919 11.7682Z" fill="#FDFDFD"/>
</svg>
