<svg width="20" height="20" viewBox="0 0 20 20" fill="none" xmlns="http://www.w3.org/2000/svg">
<path d="M17.0832 14.1072V8.33341C17.0832 5.19071 17.0832 3.61937 16.1068 2.64306C15.1306 1.66675 13.5592 1.66675 10.4165 1.66675H9.58317C6.44047 1.66675 4.86913 1.66675 3.89281 2.64306C2.9165 3.61937 2.9165 5.19071 2.9165 8.33341V16.2501" stroke="#626262" stroke-width="1.25" stroke-linecap="round"/>
<path d="M17.0832 14.1667H4.99984C3.84925 14.1667 2.9165 15.0995 2.9165 16.2501C2.9165 17.4007 3.84925 18.3334 4.99984 18.3334H17.0832" stroke="#626262" stroke-width="1.25" stroke-linecap="round"/>
<path d="M17.0833 18.3334C15.9327 18.3334 15 17.4007 15 16.2501C15 15.0995 15.9327 14.1667 17.0833 14.1667" stroke="#626262" stroke-width="1.25" stroke-linecap="round"/>
<path d="M12.5 5.83325H7.5" stroke="#626262" stroke-width="1.25" stroke-linecap="round" stroke-linejoin="round"/>
<path d="M10 9.16675H7.5" stroke="#626262" stroke-width="1.25" stroke-linecap="round" stroke-linejoin="round"/>
</svg>
