<svg width="43" height="36" viewBox="0 0 43 36" fill="none" xmlns="http://www.w3.org/2000/svg">
<path d="M41.5472 20.3809V27.5237C41.5472 30.619 34.0853 34.6666 24.8805 34.6666C15.6758 34.6666 8.21387 30.619 8.21387 27.5237V21.5713" stroke="#626262" stroke-linecap="round" stroke-linejoin="round"/>
<path d="M8.91406 22.188C10.9736 24.9213 17.3426 27.4856 24.8807 27.4856C34.0855 27.4856 41.5474 23.6618 41.5474 20.376C41.5474 18.5308 39.1974 16.5094 35.5093 15.0903" stroke="#626262" stroke-linecap="round" stroke-linejoin="round"/>
<path d="M34.4046 8.47607V15.6189C34.4046 18.7142 26.9427 22.7618 17.738 22.7618C8.53319 22.7618 1.07129 18.7142 1.07129 15.6189V8.47607" stroke="#626262" stroke-linecap="round" stroke-linejoin="round"/>
<path fill-rule="evenodd" clip-rule="evenodd" d="M17.738 15.5809C26.9427 15.5809 34.4046 11.7571 34.4046 8.47135C34.4046 5.18563 26.9427 1.33325 17.738 1.33325C8.53319 1.33325 1.07129 5.18325 1.07129 8.47135C1.07129 11.7571 8.53319 15.5809 17.738 15.5809Z" stroke="#626262" stroke-linecap="round" stroke-linejoin="round"/>
</svg>
