<svg width="15" height="12" viewBox="0 0 15 12" fill="none" xmlns="http://www.w3.org/2000/svg">
<path d="M14.0954 6.76221V9.04792C14.0954 10.0384 11.7076 11.3336 8.76204 11.3336C5.81652 11.3336 3.42871 10.0384 3.42871 9.04792V7.14316" stroke="black" stroke-linecap="round" stroke-linejoin="round"/>
<path d="M3.65283 7.34057C4.31188 8.21524 6.34997 9.03581 8.76217 9.03581C11.7077 9.03581 14.0955 7.81219 14.0955 6.76076C14.0955 6.17029 13.3435 5.52343 12.1633 5.06934" stroke="black" stroke-linecap="round" stroke-linejoin="round"/>
<path d="M11.8097 2.95264V5.23835C11.8097 6.22883 9.42192 7.52407 6.4764 7.52407C3.53088 7.52407 1.14307 6.22883 1.14307 5.23835V2.95264" stroke="black" stroke-linecap="round" stroke-linejoin="round"/>
<path fill-rule="evenodd" clip-rule="evenodd" d="M6.4764 5.22623C9.42192 5.22623 11.8097 4.00261 11.8097 2.95118C11.8097 1.89975 9.42192 0.666992 6.4764 0.666992C3.53088 0.666992 1.14307 1.89899 1.14307 2.95118C1.14307 4.00261 3.53088 5.22623 6.4764 5.22623Z" stroke="black" stroke-linecap="round" stroke-linejoin="round"/>
</svg>
