<svg width="15" height="13" viewBox="0 0 15 13" fill="none" xmlns="http://www.w3.org/2000/svg">
<path d="M14.0954 7.2619V9.54762C14.0954 10.5381 11.7076 11.8333 8.76204 11.8333C5.81652 11.8333 3.42871 10.5381 3.42871 9.54762V7.64285" stroke="#249000" stroke-linecap="round" stroke-linejoin="round"/>
<path d="M3.65234 7.84021C4.31139 8.71487 6.34949 9.53545 8.76168 9.53545C11.7072 9.53545 14.095 8.31183 14.095 7.2604C14.095 6.66992 13.343 6.02307 12.1628 5.56897" stroke="#249000" stroke-linecap="round" stroke-linejoin="round"/>
<path d="M11.8092 3.45239V5.73811C11.8092 6.72858 9.42143 8.02382 6.47591 8.02382C3.53039 8.02382 1.14258 6.72858 1.14258 5.73811V3.45239" stroke="#249000" stroke-linecap="round" stroke-linejoin="round"/>
<path fill-rule="evenodd" clip-rule="evenodd" d="M6.47591 5.72593C9.42143 5.72593 11.8092 4.50231 11.8092 3.45088C11.8092 2.39945 9.42143 1.16669 6.47591 1.16669C3.53039 1.16669 1.14258 2.39869 1.14258 3.45088C1.14258 4.50231 3.53039 5.72593 6.47591 5.72593Z" stroke="#249000" stroke-linecap="round" stroke-linejoin="round"/>
</svg>
