<svg width="15" height="12" viewBox="0 0 15 12" fill="none" xmlns="http://www.w3.org/2000/svg">
<path d="M14.0954 6.76184V9.04755C14.0954 10.038 11.7076 11.3333 8.76204 11.3333C5.81652 11.3333 3.42871 10.038 3.42871 9.04755V7.14279" stroke="#FDFDFD" stroke-linecap="round" stroke-linejoin="round"/>
<path d="M3.65283 7.34021C4.31188 8.21487 6.34997 9.03545 8.76217 9.03545C11.7077 9.03545 14.0955 7.81183 14.0955 6.7604C14.0955 6.16992 13.3435 5.52307 12.1633 5.06897" stroke="#FDFDFD" stroke-linecap="round" stroke-linejoin="round"/>
<path d="M11.8097 2.95239V5.23811C11.8097 6.22858 9.42192 7.52382 6.4764 7.52382C3.53088 7.52382 1.14307 6.22858 1.14307 5.23811V2.95239" stroke="#FDFDFD" stroke-linecap="round" stroke-linejoin="round"/>
<path fill-rule="evenodd" clip-rule="evenodd" d="M6.4764 5.22586C9.42192 5.22586 11.8097 4.00225 11.8097 2.95082C11.8097 1.89939 9.42192 0.666626 6.4764 0.666626C3.53088 0.666626 1.14307 1.89863 1.14307 2.95082C1.14307 4.00225 3.53088 5.22586 6.4764 5.22586Z" stroke="#FDFDFD" stroke-linecap="round" stroke-linejoin="round"/>
</svg>
