<svg width="19" height="14" viewBox="0 0 19 14" fill="none" xmlns="http://www.w3.org/2000/svg">
<path d="M16.0701 1.64969C14.9048 1.13752 13.659 0.765278 12.3565 0.553345C12.1965 0.825053 12.0096 1.1905 11.8808 1.48123C10.4962 1.2856 9.1243 1.2856 7.76519 1.48123C7.63637 1.1905 7.44521 0.825053 7.28385 0.553345C5.97993 0.765278 4.73264 1.13888 3.56747 1.65241C1.21731 4.98899 0.580218 8.24272 0.898764 11.4502C2.45752 12.5439 3.96813 13.2082 5.45326 13.6429C5.81994 13.1688 6.14698 12.6648 6.42872 12.1336C5.89215 11.942 5.37823 11.7057 4.89262 11.4312C5.02145 11.3416 5.14746 11.2478 5.26921 11.1514C8.23101 12.4528 11.449 12.4528 14.3754 11.1514C14.4985 11.2478 14.6246 11.3416 14.752 11.4312C14.2649 11.707 13.7496 11.9434 13.213 12.1349C13.4948 12.6648 13.8204 13.1701 14.1885 13.6443C15.675 13.2095 17.1871 12.5452 18.7458 11.4502C19.1196 7.7319 18.1073 4.50806 16.0701 1.64969ZM6.83221 9.47763C5.94312 9.47763 5.214 8.69779 5.214 7.74821C5.214 6.79857 5.92754 6.01743 6.83221 6.01743C7.73689 6.01743 8.46598 6.79721 8.45041 7.74821C8.45186 8.69779 7.73689 9.47763 6.83221 9.47763ZM12.8124 9.47763C11.9233 9.47763 11.1941 8.69779 11.1941 7.74821C11.1941 6.79857 11.9077 6.01743 12.8124 6.01743C13.717 6.01743 14.4462 6.79721 14.4306 7.74821C14.4306 8.69779 13.717 9.47763 12.8124 9.47763Z" fill="#33164C"/>
</svg>
