<svg width="16" height="25" viewBox="0 0 16 25" fill="none" xmlns="http://www.w3.org/2000/svg">
<path fill-rule="evenodd" clip-rule="evenodd" d="M6.30973 0.461426C7.68273 0.461426 9.05069 0.461426 10.4237 0.461426C10.3429 1.39022 10.2571 2.32407 10.1814 3.25286C11.7816 3.36896 13.3413 3.88384 14.7446 4.64606C14.1389 6.1705 13.5281 7.69494 12.9173 9.21938C11.7361 8.21486 10.1814 7.6596 8.63172 7.67979C8.24304 7.68989 7.83922 7.76561 7.51616 7.98771C7.30415 8.1341 7.14767 8.36125 7.10224 8.61364C7.0669 8.81555 7.077 9.0427 7.18805 9.22442C7.31424 9.42634 7.53635 9.54748 7.75845 9.6232C8.21275 9.78473 8.70239 9.79483 9.17689 9.8453C10.2925 9.9816 11.4131 10.1734 12.4681 10.5722C13.2858 10.8852 14.0682 11.3546 14.6285 12.0411C15.1585 12.6721 15.4665 13.4696 15.5826 14.2874C15.7188 15.2313 15.6785 16.2106 15.3857 17.1293C15.1585 17.8663 14.7699 18.5528 14.2651 19.1333C13.2202 20.3447 11.6856 21.0716 10.1107 21.2584C10.1612 22.2528 10.2218 23.2422 10.2773 24.2366C8.97497 24.2366 7.67769 24.2366 6.3804 24.2366C6.43088 23.2523 6.4965 22.268 6.54193 21.2836C5.49703 21.2483 4.46223 21.0161 3.488 20.6476C2.54406 20.2892 1.64555 19.8147 0.807617 19.2595C1.42345 17.6745 2.03928 16.0894 2.66016 14.4994C3.36181 15.09 4.10889 15.6402 4.92663 16.0592C5.80495 16.5084 6.77918 16.7961 7.76855 16.8062C8.23799 16.8113 8.72258 16.786 9.16679 16.6245C9.43937 16.5236 9.70691 16.3469 9.82805 16.0693C9.95425 15.7765 9.94415 15.408 9.75234 15.1455C9.61605 14.9688 9.42423 14.8477 9.22232 14.7619C8.94974 14.6508 8.66706 14.5902 8.37933 14.5448C7.31929 14.3732 6.2542 14.2319 5.2295 13.8987C4.40671 13.6312 3.6041 13.2576 2.94789 12.6822C2.53397 12.3238 2.19072 11.8846 1.94842 11.3899C1.58498 10.653 1.44869 9.82007 1.45878 9.00232C1.45878 8.08867 1.64555 7.15987 2.09986 6.35727C2.49359 5.64048 3.09428 5.05493 3.77068 4.60568C4.58843 4.06556 5.50208 3.69707 6.43088 3.39925C6.3905 2.41998 6.35011 1.4407 6.30973 0.461426Z" fill="#4E6CA4"/>
</svg>
