<svg width="41" height="40" viewBox="0 0 41 40" fill="none" xmlns="http://www.w3.org/2000/svg">
<path fill-rule="evenodd" clip-rule="evenodd" d="M15 24H24.5C26.386 24 27.328 24 27.914 23.414C28.5 22.828 28.5 21.886 28.5 20V15C28.5 13.114 28.5 12.172 27.914 11.586C27.328 11 26.386 11 24.5 11H16.5C14.614 11 13.672 11 13.086 11.586C12.5 12.172 12.5 13.114 12.5 15V26.5C12.5 25.837 12.7634 25.2011 13.2322 24.7322C13.7011 24.2634 14.337 24 15 24ZM17.5 14C16.9696 14 16.4609 14.2107 16.0858 14.5858C15.7107 14.9609 15.5 15.4696 15.5 16C15.5 16.5304 15.7107 17.0391 16.0858 17.4142C16.4609 17.7893 16.9696 18 17.5 18H23.5C24.0304 18 24.5391 17.7893 24.9142 17.4142C25.2893 17.0391 25.5 16.5304 25.5 16C25.5 15.4696 25.2893 14.9609 24.9142 14.5858C24.5391 14.2107 24.0304 14 23.5 14H17.5Z" fill="#24427A"/>
<path d="M24.5 23H15V25H24.5V23ZM27.207 22.707C27.131 22.783 26.995 22.877 26.561 22.936C26.099 22.998 25.471 23 24.5 23V25C25.415 25 26.201 25.002 26.828 24.918C27.483 24.83 28.112 24.631 28.621 24.121L27.207 22.707ZM27.5 20C27.5 20.971 27.498 21.599 27.436 22.061C27.377 22.495 27.283 22.631 27.207 22.707L28.621 24.121C29.131 23.611 29.33 22.983 29.418 22.328C29.502 21.7 29.5 20.915 29.5 20H27.5ZM27.5 15V20H29.5V15H27.5ZM27.207 12.293C27.283 12.369 27.377 12.505 27.436 12.939C27.498 13.4 27.5 14.029 27.5 15H29.5C29.5 14.085 29.502 13.299 29.418 12.672C29.33 12.017 29.131 11.388 28.621 10.879L27.207 12.293ZM24.5 12C25.471 12 26.099 12.002 26.561 12.064C26.995 12.123 27.131 12.217 27.207 12.293L28.621 10.879C28.111 10.369 27.483 10.17 26.828 10.082C26.2 9.998 25.415 10 24.5 10V12ZM16.5 12H24.5V10H16.5V12ZM13.793 12.293C13.869 12.217 14.005 12.123 14.439 12.064C14.9 12.002 15.529 12 16.5 12V10C15.585 10 14.799 9.998 14.172 10.082C13.517 10.17 12.888 10.369 12.379 10.879L13.793 12.293ZM13.5 15C13.5 14.029 13.502 13.401 13.564 12.939C13.623 12.505 13.717 12.369 13.793 12.293L12.379 10.879C11.869 11.389 11.67 12.017 11.582 12.672C11.498 13.3 11.5 14.085 11.5 15H13.5ZM13.5 26.5V15H11.5V26.5H13.5ZM15 23C14.0717 23 13.1815 23.3688 12.5251 24.0251C11.8688 24.6815 11.5 25.5717 11.5 26.5H13.5C13.5 26.1022 13.658 25.7206 13.9393 25.4393C14.2206 25.158 14.6022 25 15 25V23ZM16.5 16C16.5 15.7348 16.6054 15.4804 16.7929 15.2929C16.9804 15.1054 17.2348 15 17.5 15V13C16.7044 13 15.9413 13.3161 15.3787 13.8787C14.8161 14.4413 14.5 15.2044 14.5 16H16.5ZM17.5 17C17.2348 17 16.9804 16.8946 16.7929 16.7071C16.6054 16.5196 16.5 16.2652 16.5 16H14.5C14.5 16.7957 14.8161 17.5587 15.3787 18.1213C15.9413 18.6839 16.7044 19 17.5 19V17ZM23.5 17H17.5V19H23.5V17ZM24.5 16C24.5 16.2652 24.3946 16.5196 24.2071 16.7071C24.0196 16.8946 23.7652 17 23.5 17V19C24.2957 19 25.0587 18.6839 25.6213 18.1213C26.1839 17.5587 26.5 16.7957 26.5 16H24.5ZM23.5 15C23.7652 15 24.0196 15.1054 24.2071 15.2929C24.3946 15.4804 24.5 15.7348 24.5 16H26.5C26.5 15.2044 26.1839 14.4413 25.6213 13.8787C25.0587 13.3161 24.2957 13 23.5 13V15ZM17.5 15H23.5V13H17.5V15ZM19.5 28H15V30H19.5V28ZM11.5 26.5C11.5 27.4283 11.8688 28.3185 12.5251 28.9749C13.1815 29.6313 14.0717 30 15 30V28C14.6022 28 14.2206 27.842 13.9393 27.5607C13.658 27.2794 13.5 26.8978 13.5 26.5H11.5Z" fill="#24427A"/>
<path d="M28.5 29H18.5" stroke="#24427A" stroke-width="2" stroke-linecap="round"/>
</svg>
