<svg width="15" height="14" viewBox="0 0 15 14" fill="none" xmlns="http://www.w3.org/2000/svg">
<path d="M9.20418 7.81217C8.5093 8.50705 7.38267 8.50705 6.68779 7.81217C5.99291 7.11728 5.99291 5.99064 6.68779 5.29576L8.26053 3.723C8.92379 3.05974 9.98039 3.02955 10.6794 3.63244M10.4624 1.52117C11.1573 0.826278 12.2839 0.826278 12.9788 1.52117C13.6737 2.21605 13.6737 3.34269 12.9788 4.03758L11.4061 5.61033C10.7428 6.27359 9.6862 6.30378 8.98714 5.70089" stroke="#D45C51" stroke-width="1.5" stroke-linecap="round"/>
<path d="M13.5 7.66667C13.5 10.1808 13.5 11.4379 12.719 12.219C11.9379 13 10.6808 13 8.16667 13H6.83333C4.31918 13 3.0621 13 2.28105 12.219C1.5 11.4379 1.5 10.1808 1.5 7.66667V6.33333C1.5 3.81918 1.5 2.5621 2.28105 1.78105C3.0621 1 4.31918 1 6.83333 1" stroke="#D45C51" stroke-width="1.5" stroke-linecap="round"/>
</svg>
