<svg width="20" height="20" viewBox="0 0 20 20" fill="none" xmlns="http://www.w3.org/2000/svg">
<g clip-path="url(#clip0_2196_48789)">
<path d="M19.3997 9.9999C19.3997 4.69801 15.1016 0.399902 9.79971 0.399902C4.49782 0.399902 0.199707 4.69801 0.199707 9.9999C0.199707 14.5019 3.29936 18.2797 7.48073 19.3173V12.9337H5.50121V9.9999H7.48073V8.73577C7.48073 5.46832 8.95951 3.95382 12.1675 3.95382C12.7757 3.95382 13.8252 4.07325 14.2545 4.19229V6.85149C14.0279 6.82768 13.6343 6.81577 13.1455 6.81577C11.5715 6.81577 10.9632 7.41213 10.9632 8.96233V9.9999H14.099L13.5602 12.9337H10.9632V19.5296C15.7168 18.9555 19.4001 14.9082 19.4001 9.9999H19.3997Z" fill="#0866FF"/>
<path d="M13.56 12.9337L14.0987 9.99994H10.963V8.96237C10.963 7.41216 11.5712 6.81581 13.1453 6.81581C13.6341 6.81581 14.0277 6.82771 14.2543 6.85152V4.19232C13.8249 4.0729 12.7755 3.95386 12.1672 3.95386C8.95928 3.95386 7.4805 5.46835 7.4805 8.73581V9.99994H5.50098V12.9337H7.4805V19.3173C8.22315 19.5016 8.99998 19.5999 9.79947 19.5999C10.1931 19.5999 10.5813 19.5757 10.9626 19.5297V12.9337H13.5596H13.56Z" fill="white"/>
</g>
<defs>
<clipPath id="clip0_2196_48789">
<rect width="19.2" height="19.2" fill="white" transform="translate(0.199707 0.399902)"/>
</clipPath>
</defs>
</svg>
