<svg width="20" height="20" viewBox="0 0 20 20" fill="none" xmlns="http://www.w3.org/2000/svg">
<path d="M0 16C0 14.4596 0 13.6893 0.346729 13.1235C0.540742 12.8069 0.806932 12.5407 1.12353 12.3467C1.68934 12 2.45956 12 4 12C5.54044 12 6.31066 12 6.87647 12.3467C7.19307 12.5407 7.45926 12.8069 7.65327 13.1235C8 13.6893 8 14.4596 8 16C8 17.5404 8 18.3107 7.65327 18.8765C7.45926 19.1931 7.19307 19.4593 6.87647 19.6533C6.31066 20 5.54044 20 4 20C2.45956 20 1.68934 20 1.12353 19.6533C0.806932 19.4593 0.540742 19.1931 0.346729 18.8765C0 18.3107 0 17.5404 0 16Z" fill="#D45C51"/>
<path d="M12 16C12 14.4596 12 13.6893 12.3467 13.1235C12.5407 12.8069 12.8069 12.5407 13.1235 12.3467C13.6893 12 14.4596 12 16 12C17.5404 12 18.3107 12 18.8765 12.3467C19.1931 12.5407 19.4593 12.8069 19.6533 13.1235C20 13.6893 20 14.4596 20 16C20 17.5404 20 18.3107 19.6533 18.8765C19.4593 19.1931 19.1931 19.4593 18.8765 19.6533C18.3107 20 17.5404 20 16 20C14.4596 20 13.6893 20 13.1235 19.6533C12.8069 19.4593 12.5407 19.1931 12.3467 18.8765C12 18.3107 12 17.5404 12 16Z" fill="#D45C51"/>
<path d="M0 4C0 2.45956 0 1.68934 0.346729 1.12353C0.540742 0.806932 0.806932 0.540742 1.12353 0.346729C1.68934 0 2.45956 0 4 0C5.54044 0 6.31066 0 6.87647 0.346729C7.19307 0.540742 7.45926 0.806932 7.65327 1.12353C8 1.68934 8 2.45956 8 4C8 5.54044 8 6.31066 7.65327 6.87647C7.45926 7.19307 7.19307 7.45926 6.87647 7.65327C6.31066 8 5.54044 8 4 8C2.45956 8 1.68934 8 1.12353 7.65327C0.806932 7.45926 0.540742 7.19307 0.346729 6.87647C0 6.31066 0 5.54044 0 4Z" fill="#D45C51"/>
<path d="M12 4C12 2.45956 12 1.68934 12.3467 1.12353C12.5407 0.806932 12.8069 0.540742 13.1235 0.346729C13.6893 0 14.4596 0 16 0C17.5404 0 18.3107 0 18.8765 0.346729C19.1931 0.540742 19.4593 0.806932 19.6533 1.12353C20 1.68934 20 2.45956 20 4C20 5.54044 20 6.31066 19.6533 6.87647C19.4593 7.19307 19.1931 7.45926 18.8765 7.65327C18.3107 8 17.5404 8 16 8C14.4596 8 13.6893 8 13.1235 7.65327C12.8069 7.45926 12.5407 7.19307 12.3467 6.87647C12 6.31066 12 5.54044 12 4Z" fill="#D45C51"/>
</svg>
