<svg width="20" height="20" viewBox="0 0 20 20" fill="none" xmlns="http://www.w3.org/2000/svg">
<rect x="2" y="1.59985" width="16.8" height="16.8" rx="4.8" fill="url(#paint0_radial_2196_48783)"/>
<rect x="2" y="1.59985" width="16.8" height="16.8" rx="4.8" fill="url(#paint1_radial_2196_48783)"/>
<rect x="2" y="1.59985" width="16.8" height="16.8" rx="4.8" fill="url(#paint2_radial_2196_48783)"/>
<path d="M14.5999 6.7C14.5999 7.19706 14.197 7.6 13.6999 7.6C13.2028 7.6 12.7999 7.19706 12.7999 6.7C12.7999 6.20294 13.2028 5.8 13.6999 5.8C14.197 5.8 14.5999 6.20294 14.5999 6.7Z" fill="white"/>
<path fill-rule="evenodd" clip-rule="evenodd" d="M10.3999 13C12.0568 13 13.3999 11.6569 13.3999 10C13.3999 8.34315 12.0568 7 10.3999 7C8.74305 7 7.3999 8.34315 7.3999 10C7.3999 11.6569 8.74305 13 10.3999 13ZM10.3999 11.8C11.394 11.8 12.1999 10.9941 12.1999 10C12.1999 9.00589 11.394 8.2 10.3999 8.2C9.40579 8.2 8.5999 9.00589 8.5999 10C8.5999 10.9941 9.40579 11.8 10.3999 11.8Z" fill="white"/>
<path fill-rule="evenodd" clip-rule="evenodd" d="M4.3999 9.76C4.3999 7.74381 4.3999 6.73572 4.79228 5.96563C5.13742 5.28825 5.68815 4.73752 6.36554 4.39238C7.13562 4 8.14371 4 10.1599 4H10.6399C12.6561 4 13.6642 4 14.4343 4.39238C15.1117 4.73752 15.6624 5.28825 16.0075 5.96563C16.3999 6.73572 16.3999 7.74381 16.3999 9.76V10.24C16.3999 12.2562 16.3999 13.2643 16.0075 14.0344C15.6624 14.7117 15.1117 15.2625 14.4343 15.6076C13.6642 16 12.6561 16 10.6399 16H10.1599C8.14371 16 7.13562 16 6.36554 15.6076C5.68815 15.2625 5.13742 14.7117 4.79228 14.0344C4.3999 13.2643 4.3999 12.2562 4.3999 10.24V9.76ZM10.1599 5.2H10.6399C11.6678 5.2 12.3665 5.20093 12.9067 5.24506C13.4328 5.28805 13.7018 5.36596 13.8895 5.46158C14.3411 5.69168 14.7082 6.05883 14.9383 6.51042C15.0339 6.6981 15.1119 6.96715 15.1548 7.49325C15.199 8.03335 15.1999 8.7321 15.1999 9.76V10.24C15.1999 11.2679 15.199 11.9666 15.1548 12.5068C15.1119 13.0329 15.0339 13.3019 14.9383 13.4896C14.7082 13.9412 14.3411 14.3083 13.8895 14.5384C13.7018 14.634 13.4328 14.712 12.9067 14.7549C12.3665 14.7991 11.6678 14.8 10.6399 14.8H10.1599C9.13201 14.8 8.43326 14.7991 7.89315 14.7549C7.36705 14.712 7.098 14.634 6.91033 14.5384C6.45874 14.3083 6.09158 13.9412 5.86149 13.4896C5.76586 13.3019 5.68795 13.0329 5.64496 12.5068C5.60084 11.9666 5.5999 11.2679 5.5999 10.24V9.76C5.5999 8.7321 5.60084 8.03335 5.64496 7.49325C5.68795 6.96715 5.76586 6.6981 5.86149 6.51042C6.09158 6.05883 6.45874 5.69168 6.91033 5.46158C7.098 5.36596 7.36705 5.28805 7.89315 5.24506C8.43326 5.20093 9.13201 5.2 10.1599 5.2Z" fill="white"/>
<defs>
<radialGradient id="paint0_radial_2196_48783" cx="0" cy="0" r="1" gradientUnits="userSpaceOnUse" gradientTransform="translate(8 14.1999) rotate(-55.3758) scale(15.3118)">
<stop stop-color="#B13589"/>
<stop offset="0.79309" stop-color="#C62F94"/>
<stop offset="1" stop-color="#8A3AC8"/>
</radialGradient>
<radialGradient id="paint1_radial_2196_48783" cx="0" cy="0" r="1" gradientUnits="userSpaceOnUse" gradientTransform="translate(7.4 18.9999) rotate(-65.1363) scale(13.5565)">
<stop stop-color="#E0E8B7"/>
<stop offset="0.444662" stop-color="#FB8A2E"/>
<stop offset="0.71474" stop-color="#E2425C"/>
<stop offset="1" stop-color="#E2425C" stop-opacity="0"/>
</radialGradient>
<radialGradient id="paint2_radial_2196_48783" cx="0" cy="0" r="1" gradientUnits="userSpaceOnUse" gradientTransform="translate(1.1 2.19985) rotate(-8.1301) scale(23.3345 4.99101)">
<stop offset="0.156701" stop-color="#406ADC"/>
<stop offset="0.467799" stop-color="#6A45BE"/>
<stop offset="1" stop-color="#6A45BE" stop-opacity="0"/>
</radialGradient>
</defs>
</svg>
