<svg width="19" height="19" viewBox="0 0 19 19" fill="none" xmlns="http://www.w3.org/2000/svg">
<path d="M16.1223 4.35334C16.1223 5.09893 15.5179 5.70334 14.7723 5.70334C14.0267 5.70334 13.4223 5.09893 13.4223 4.35334C13.4223 3.60776 14.0267 3.00334 14.7723 3.00334C15.5179 3.00334 16.1223 3.60776 16.1223 4.35334Z" fill="#33164C"/>
<path fill-rule="evenodd" clip-rule="evenodd" d="M9.82233 13.8033C12.3076 13.8033 14.3223 11.7886 14.3223 9.30334C14.3223 6.81806 12.3076 4.80334 9.82233 4.80334C7.33704 4.80334 5.32233 6.81806 5.32233 9.30334C5.32233 11.7886 7.33704 13.8033 9.82233 13.8033ZM9.82233 12.0033C11.3135 12.0033 12.5223 10.7945 12.5223 9.30334C12.5223 7.81218 11.3135 6.60334 9.82233 6.60334C8.33116 6.60334 7.12233 7.81218 7.12233 9.30334C7.12233 10.7945 8.33116 12.0033 9.82233 12.0033Z" fill="#33164C"/>
<path fill-rule="evenodd" clip-rule="evenodd" d="M0.822327 8.94335C0.822327 5.91906 0.822327 4.40692 1.41089 3.2518C1.92861 2.23572 2.7547 1.40963 3.77078 0.891909C4.9259 0.303345 6.43804 0.303345 9.46233 0.303345H10.1823C13.2066 0.303345 14.7188 0.303345 15.8739 0.891909C16.8899 1.40963 17.716 2.23572 18.2338 3.2518C18.8223 4.40692 18.8223 5.91906 18.8223 8.94335V9.66334C18.8223 12.6876 18.8223 14.1998 18.2338 15.3549C17.716 16.371 16.8899 17.1971 15.8739 17.7148C14.7188 18.3033 13.2066 18.3033 10.1823 18.3033H9.46233C6.43804 18.3033 4.9259 18.3033 3.77078 17.7148C2.7547 17.1971 1.92861 16.371 1.41089 15.3549C0.822327 14.1998 0.822327 12.6876 0.822327 9.66334V8.94335ZM9.46233 2.10334H10.1823C11.7242 2.10334 12.7723 2.10474 13.5825 2.17094C14.3716 2.23541 14.7752 2.35228 15.0567 2.49572C15.7341 2.84087 16.2848 3.3916 16.6299 4.06898C16.7734 4.3505 16.8903 4.75407 16.9547 5.54321C17.0209 6.35337 17.0223 7.4015 17.0223 8.94335V9.66334C17.0223 11.2052 17.0209 12.2533 16.9547 13.0635C16.8903 13.8526 16.7734 14.2562 16.6299 14.5377C16.2848 15.2151 15.7341 15.7658 15.0567 16.111C14.7752 16.2544 14.3716 16.3713 13.5825 16.4358C12.7723 16.5019 11.7242 16.5033 10.1823 16.5033H9.46233C7.92048 16.5033 6.87236 16.5019 6.06219 16.4358C5.27305 16.3713 4.86948 16.2544 4.58796 16.111C3.91058 15.7658 3.35985 15.2151 3.0147 14.5377C2.87126 14.2562 2.7544 13.8526 2.68992 13.0635C2.62373 12.2533 2.62233 11.2052 2.62233 9.66334V8.94335C2.62233 7.4015 2.62373 6.35337 2.68992 5.54321C2.7544 4.75407 2.87126 4.3505 3.0147 4.06898C3.35985 3.3916 3.91058 2.84087 4.58796 2.49572C4.86948 2.35228 5.27305 2.23541 6.06219 2.17094C6.87236 2.10474 7.92048 2.10334 9.46233 2.10334Z" fill="#33164C"/>
</svg>
