<svg width="14" height="14" viewBox="0 0 14 14" fill="none" xmlns="http://www.w3.org/2000/svg">
<path fill-rule="evenodd" clip-rule="evenodd" d="M10.5472 2.36933C11.2379 2.30051 11.822 2.87454 11.7651 3.56627L11.4227 7.73243C11.3099 9.10522 10.3646 10.2673 9.04347 10.6572L7.12811 11.2224L5.98188 12.3887C5.33651 13.0453 4.281 13.0545 3.62435 12.4091L1.84672 10.662C1.19006 10.0167 1.18092 8.96115 1.82629 8.30449L2.97264 7.1381L3.50455 5.21343C3.87147 3.88578 5.01702 2.92043 6.38764 2.78384L10.5472 2.36933ZM3.47665 8.21083L6.04694 10.737L5.18923 11.6097C4.9741 11.8285 4.62227 11.8316 4.40338 11.6165L2.62575 9.86937C2.40686 9.65425 2.40382 9.30241 2.61894 9.08353L3.47665 8.21083ZM9.7909 3.5616L7.63089 5.75937C7.53886 5.73561 7.44225 5.72336 7.3427 5.72422C6.72892 5.72954 6.23566 6.23142 6.24098 6.8452C6.24629 7.45898 6.74817 7.95224 7.36196 7.94692C7.97574 7.9416 8.469 7.43973 8.46368 6.82594C8.46281 6.72639 8.44889 6.63001 8.42354 6.53841L10.5866 4.33755L10.3151 7.64141C10.2399 8.55659 9.60962 9.33133 8.7289 9.59124L6.98913 10.1047L4.09259 7.25789L4.57579 5.50948C4.8204 4.62438 5.5841 3.98081 6.49785 3.88976L9.7909 3.5616Z" fill="#FF9F96"/>
<path d="M12.116 10.5043C12.1713 10.2762 12.4957 10.2762 12.551 10.5043L12.7032 11.132C12.723 11.2135 12.7866 11.2771 12.868 11.2968L13.4957 11.449C13.7239 11.5044 13.7239 11.8288 13.4957 11.8841L12.868 12.0363C12.7866 12.0561 12.723 12.1197 12.7032 12.2011L12.551 12.8288C12.4957 13.0569 12.1713 13.0569 12.116 12.8288L11.9637 12.2011C11.944 12.1197 11.8804 12.0561 11.799 12.0363L11.1713 11.8841C10.9431 11.8288 10.9431 11.5044 11.1713 11.449L11.799 11.2968C11.8804 11.2771 11.944 11.2135 11.9637 11.132L12.116 10.5043Z" fill="#FF9F96"/>
<path fill-rule="evenodd" clip-rule="evenodd" d="M12.3335 10.7471L12.2248 11.1953C12.1813 11.3745 12.0414 11.5144 11.8623 11.5579L11.414 11.6666L11.8623 11.7753C12.0414 11.8187 12.1813 11.9586 12.2248 12.1378L12.3335 12.5861L12.4422 12.1378C12.4856 11.9586 12.6255 11.8187 12.8047 11.7753L13.253 11.6666L12.8047 11.5579C12.6255 11.5144 12.4856 11.3745 12.4422 11.1953L12.3335 10.7471ZM12.551 10.5043C12.4957 10.2762 12.1713 10.2762 12.116 10.5043L11.9637 11.132C11.944 11.2135 11.8804 11.2771 11.799 11.2968L11.1713 11.449C10.9431 11.5044 10.9431 11.8288 11.1713 11.8841L11.799 12.0363C11.8804 12.0561 11.944 12.1197 11.9637 12.2011L12.116 12.8288C12.1713 13.0569 12.4957 13.0569 12.551 12.8288L12.7032 12.2011C12.723 12.1197 12.7866 12.0561 12.868 12.0363L13.4957 11.8841C13.7239 11.8288 13.7239 11.5044 13.4957 11.449L12.868 11.2968C12.7866 11.2771 12.723 11.2135 12.7032 11.132L12.551 10.5043Z" fill="#FF9F96"/>
<path d="M9.66683 12.9999C9.66683 13.3681 9.36835 13.6666 9.00016 13.6666C8.63197 13.6666 8.3335 13.3681 8.3335 12.9999C8.3335 12.6317 8.63197 12.3333 9.00016 12.3333C9.36835 12.3333 9.66683 12.6317 9.66683 12.9999Z" fill="#FF9F96"/>
<path d="M13.6668 0.999919C13.6668 1.36811 13.3684 1.66659 13.0002 1.66659C12.632 1.66659 12.3335 1.36811 12.3335 0.999919C12.3335 0.631729 12.632 0.333252 13.0002 0.333252C13.3684 0.333252 13.6668 0.631729 13.6668 0.999919Z" fill="#FF9F96"/>
<path d="M5.00016 0.999919C5.00016 1.36811 4.70169 1.66659 4.3335 1.66659C3.96531 1.66659 3.66683 1.36811 3.66683 0.999919C3.66683 0.631729 3.96531 0.333252 4.3335 0.333252C4.70169 0.333252 5.00016 0.631729 5.00016 0.999919Z" fill="#FF9F96"/>
<path d="M1.44929 2.50435C1.50461 2.27622 1.82905 2.27622 1.88437 2.50435L2.03658 3.13205C2.05633 3.2135 2.11992 3.27709 2.20137 3.29684L2.82907 3.44905C3.05719 3.50436 3.05719 3.82881 2.82907 3.88413L2.20137 4.03633C2.11992 4.05608 2.05633 4.11968 2.03658 4.20112L1.88437 4.82882C1.82905 5.05695 1.50461 5.05695 1.44929 4.82882L1.29708 4.20112C1.27733 4.11968 1.21374 4.05608 1.13229 4.03633L0.50459 3.88413C0.276465 3.82881 0.276465 3.50436 0.50459 3.44905L1.13229 3.29684C1.21374 3.27709 1.27733 3.2135 1.29708 3.13205L1.44929 2.50435Z" fill="#FF9F96"/>
<path fill-rule="evenodd" clip-rule="evenodd" d="M1.66683 2.74707L1.55813 3.19535C1.51468 3.37453 1.37478 3.51444 1.19559 3.55788L0.747315 3.66659L1.19559 3.77529C1.37478 3.81874 1.51468 3.95864 1.55813 4.13782L1.66683 4.5861L1.77553 4.13782C1.81898 3.95864 1.95888 3.81874 2.13807 3.77529L2.58634 3.66659L2.13807 3.55788C1.95888 3.51444 1.81898 3.37453 1.77553 3.19535L1.66683 2.74707ZM1.88437 2.50435C1.82905 2.27622 1.50461 2.27622 1.44929 2.50435L1.29708 3.13205C1.27733 3.2135 1.21374 3.27709 1.13229 3.29684L0.50459 3.44905C0.276465 3.50436 0.276465 3.82881 0.50459 3.88413L1.13229 4.03633C1.21374 4.05608 1.27733 4.11968 1.29708 4.20112L1.44929 4.82882C1.50461 5.05695 1.82905 5.05695 1.88437 4.82882L2.03658 4.20112C2.05633 4.11968 2.11992 4.05608 2.20137 4.03633L2.82907 3.88413C3.05719 3.82881 3.05719 3.50436 2.82907 3.44905L2.20137 3.29684C2.11992 3.27709 2.05633 3.2135 2.03658 3.13205L1.88437 2.50435Z" fill="#FF9F96"/>
</svg>
