<svg width="18" height="18" viewBox="0 0 18 18" fill="none" xmlns="http://www.w3.org/2000/svg">
<path fill-rule="evenodd" clip-rule="evenodd" d="M13.4337 3.21185C14.297 3.12582 15.0271 3.84336 14.956 4.70802L14.5281 9.91572C14.387 11.6317 13.2053 13.0843 11.554 13.5717L9.15977 14.2782L7.72698 15.736C6.92027 16.5569 5.60089 16.5683 4.78007 15.7616L2.55803 13.5777C1.73721 12.771 1.72578 11.4516 2.53249 10.6308L3.96543 9.17281L4.63033 6.76697C5.08897 5.10741 6.5209 3.90072 8.23418 3.72999L13.4337 3.21185ZM4.59544 10.5137L7.8083 13.6714L6.73617 14.7623C6.46726 15.0359 6.02747 15.0397 5.75386 14.7708L3.53182 12.5869C3.25821 12.318 3.2544 11.8782 3.52331 11.6046L4.59544 10.5137ZM12.4883 4.70218L9.78824 7.4494C9.67321 7.4197 9.55245 7.40438 9.42801 7.40546C8.66078 7.41211 8.04421 8.03946 8.05086 8.80669C8.0575 9.57391 8.68485 10.1905 9.45208 10.1838C10.2193 10.1772 10.8359 9.54984 10.8292 8.78261C10.8282 8.65817 10.8107 8.53769 10.7791 8.42319L13.4829 5.67212L13.1435 9.80194C13.0495 10.9459 12.2617 11.9143 11.1608 12.2392L8.98605 12.881L5.36537 9.32254L5.96937 7.13703C6.27513 6.03066 7.22976 5.2262 8.37194 5.11238L12.4883 4.70218Z" fill="#626262"/>
<path d="M15.3946 13.3806C15.4637 13.0955 15.8693 13.0955 15.9384 13.3806L16.1287 14.1652C16.1534 14.2671 16.2329 14.3465 16.3347 14.3712L17.1193 14.5615C17.4045 14.6306 17.4045 15.0362 17.1193 15.1053L16.3347 15.2956C16.2329 15.3203 16.1534 15.3998 16.1287 15.5016L15.9384 16.2862C15.8693 16.5714 15.4637 16.5714 15.3946 16.2862L15.2043 15.5016C15.1796 15.3998 15.1001 15.3203 14.9983 15.2956L14.2137 15.1053C13.9285 15.0362 13.9285 14.6306 14.2137 14.5615L14.9983 14.3712C15.1001 14.3465 15.1796 14.2671 15.2043 14.1652L15.3946 13.3806Z" fill="#626262"/>
<path fill-rule="evenodd" clip-rule="evenodd" d="M15.6665 13.684L15.5306 14.2444C15.4763 14.4683 15.3014 14.6432 15.0775 14.6975L14.5171 14.8334L15.0775 14.9693C15.3014 15.0236 15.4763 15.1985 15.5306 15.4225L15.6665 15.9828L15.8024 15.4225C15.8567 15.1985 16.0316 15.0236 16.2556 14.9693L16.8159 14.8334L16.2556 14.6975C16.0316 14.6432 15.8567 14.4683 15.8024 14.2444L15.6665 13.684ZM15.9384 13.3806C15.8693 13.0955 15.4637 13.0955 15.3946 13.3806L15.2043 14.1652C15.1796 14.2671 15.1001 14.3465 14.9983 14.3712L14.2137 14.5615C13.9285 14.6306 13.9285 15.0362 14.2137 15.1053L14.9983 15.2956C15.1001 15.3203 15.1796 15.3998 15.2043 15.5016L15.3946 16.2862C15.4637 16.5714 15.8693 16.5714 15.9384 16.2862L16.1287 15.5016C16.1534 15.3998 16.2329 15.3203 16.3347 15.2956L17.1193 15.1053C17.4045 15.0362 17.4045 14.6306 17.1193 14.5615L16.3347 14.3712C16.2329 14.3465 16.1534 14.2671 16.1287 14.1652L15.9384 13.3806Z" fill="#626262"/>
<path d="M12.3332 16.5001C12.3332 16.9603 11.9601 17.3334 11.4998 17.3334C11.0396 17.3334 10.6665 16.9603 10.6665 16.5001C10.6665 16.0398 11.0396 15.6667 11.4998 15.6667C11.9601 15.6667 12.3332 16.0398 12.3332 16.5001Z" fill="#626262"/>
<path d="M17.3332 1.50008C17.3332 1.96032 16.9601 2.33341 16.4998 2.33341C16.0396 2.33341 15.6665 1.96032 15.6665 1.50008C15.6665 1.03984 16.0396 0.666748 16.4998 0.666748C16.9601 0.666748 17.3332 1.03984 17.3332 1.50008Z" fill="#626262"/>
<path d="M6.49984 1.50008C6.49984 1.96032 6.12674 2.33341 5.6665 2.33341C5.20627 2.33341 4.83317 1.96032 4.83317 1.50008C4.83317 1.03984 5.20627 0.666748 5.6665 0.666748C6.12674 0.666748 6.49984 1.03984 6.49984 1.50008Z" fill="#626262"/>
<path d="M2.06125 3.38062C2.13039 3.09546 2.53595 3.09546 2.6051 3.38062L2.79536 4.16524C2.82004 4.26705 2.89953 4.34654 3.00134 4.37123L3.78597 4.56149C4.07113 4.63064 4.07113 5.03619 3.78597 5.10534L3.00134 5.2956C2.89953 5.32029 2.82004 5.39978 2.79536 5.50159L2.6051 6.28621C2.53595 6.57137 2.13039 6.57137 2.06125 6.28621L1.87099 5.50159C1.8463 5.39978 1.76681 5.32029 1.665 5.2956L0.880371 5.10534C0.595215 5.03619 0.595215 4.63064 0.880371 4.56149L1.665 4.37123C1.76681 4.34654 1.8463 4.26705 1.87099 4.16524L2.06125 3.38062Z" fill="#626262"/>
<path fill-rule="evenodd" clip-rule="evenodd" d="M2.33317 3.68402L2.19729 4.24437C2.14298 4.46835 1.9681 4.64323 1.74412 4.69754L1.18378 4.83342L1.74412 4.96929C1.9681 5.0236 2.14298 5.19848 2.19729 5.42246L2.33317 5.98281L2.46905 5.42246C2.52336 5.19848 2.69824 5.0236 2.92222 4.96929L3.48256 4.83342L2.92222 4.69754C2.69824 4.64323 2.52336 4.46835 2.46905 4.24437L2.33317 3.68402ZM2.6051 3.38062C2.53595 3.09546 2.13039 3.09546 2.06125 3.38062L1.87099 4.16524C1.8463 4.26705 1.76681 4.34654 1.665 4.37123L0.880371 4.56149C0.595215 4.63064 0.595215 5.03619 0.880371 5.10534L1.665 5.2956C1.76681 5.32029 1.8463 5.39978 1.87099 5.50159L2.06125 6.28621C2.13039 6.57137 2.53595 6.57137 2.6051 6.28621L2.79536 5.50159C2.82004 5.39978 2.89953 5.32029 3.00134 5.2956L3.78597 5.10534C4.07113 5.03619 4.07113 4.63064 3.78597 4.56149L3.00134 4.37123C2.89953 4.34654 2.82004 4.26705 2.79536 4.16524L2.6051 3.38062Z" fill="#626262"/>
</svg>
