<svg width="15" height="14" viewBox="0 0 15 14" fill="none" xmlns="http://www.w3.org/2000/svg">
<path d="M7.49967 11.6667C6.61131 12.0816 5.44439 12.3333 4.16634 12.3333C3.45573 12.3333 2.77947 12.2555 2.16634 12.1151C1.77221 12.0248 1.57514 11.9797 1.339 11.7928C1.20432 11.6862 1.03623 11.4753 0.962418 11.3202C0.833008 11.0483 0.833008 10.7847 0.833008 10.2574V3.07598C0.833008 2.41943 1.52636 1.96849 2.16634 2.11507C2.77947 2.2555 3.45573 2.33333 4.16634 2.33333C5.44439 2.33333 6.61131 2.08158 7.49967 1.66667C8.38803 1.25176 9.55496 1 10.833 1C11.5436 1 12.2199 1.07783 12.833 1.21826C13.2271 1.30854 13.4242 1.35368 13.6604 1.54052C13.795 1.64709 13.9631 1.85804 14.0369 2.01311C14.1663 2.285 14.1663 2.54866 14.1663 3.07598V6.66667" stroke="#FDFDFD" stroke-width="1.5" stroke-linecap="round"/>
<path d="M11.8333 13L11.8333 8.33337M9.5 10.6667H14.1667" stroke="#FDFDFD" stroke-width="1.5" stroke-linecap="round"/>
<path d="M9.16634 6.66667C9.16634 7.58714 8.42015 8.33333 7.49967 8.33333C6.5792 8.33333 5.83301 7.58714 5.83301 6.66667C5.83301 5.74619 6.5792 5 7.49967 5C8.42015 5 9.16634 5.74619 9.16634 6.66667Z" stroke="#FDFDFD" stroke-width="1.5"/>
<path d="M3.16602 7.33337L3.16602 7.33936" stroke="#FDFDFD" stroke-width="2" stroke-linecap="round" stroke-linejoin="round"/>
</svg>
