<svg width="20" height="20" viewBox="0 0 20 20" fill="none" xmlns="http://www.w3.org/2000/svg">
<path d="M9.99984 16.2501C8.88942 16.7687 7.43073 17.0834 5.83317 17.0834C4.9449 17.0834 4.09958 16.9862 3.33317 16.8106C2.01507 16.5087 1.6665 15.7331 1.6665 14.4884V5.51172C1.6665 4.69103 2.5332 4.12736 3.33317 4.31058C4.09958 4.48612 4.9449 4.58341 5.83317 4.58341C7.43073 4.58341 8.88942 4.26871 9.99984 3.75008C11.1103 3.23145 12.5689 2.91675 14.1665 2.91675C15.0548 2.91675 15.9001 3.01404 16.6665 3.18958C17.9846 3.49148 18.3332 4.26705 18.3332 5.51172V14.4884C18.3332 15.3092 17.4665 15.8728 16.6665 15.6896C15.9001 15.514 15.0548 15.4167 14.1665 15.4167C12.5689 15.4167 11.1103 15.7314 9.99984 16.2501Z" stroke="#626262" stroke-width="1.25"/>
<path d="M12.0832 10.0001C12.0832 11.1507 11.1504 12.0834 9.99984 12.0834C8.84925 12.0834 7.9165 11.1507 7.9165 10.0001C7.9165 8.8495 8.84925 7.91675 9.99984 7.91675C11.1504 7.91675 12.0832 8.8495 12.0832 10.0001Z" stroke="#626262" stroke-width="1.25"/>
<path d="M4.5835 10.8333V10.8408" stroke="#626262" stroke-width="1.66667" stroke-linecap="round" stroke-linejoin="round"/>
<path d="M15.4165 9.16016V9.16766" stroke="#626262" stroke-width="1.66667" stroke-linecap="round" stroke-linejoin="round"/>
</svg>
