<svg width="41" height="40" viewBox="0 0 41 40" fill="none" xmlns="http://www.w3.org/2000/svg">
<path d="M21.5 17H27L21.5 11.5V17ZM14.5 10H22.5L28.5 16V28C28.5 28.5304 28.2893 29.0391 27.9142 29.4142C27.5391 29.7893 27.0304 30 26.5 30H14.5C13.9696 30 13.4609 29.7893 13.0858 29.4142C12.7107 29.0391 12.5 28.5304 12.5 28V12C12.5 11.4696 12.7107 10.9609 13.0858 10.5858C13.4609 10.2107 13.9696 10 14.5 10ZM19.43 20.44C19.84 21.34 20.36 22.08 20.96 22.59L21.37 22.91C20.5 23.07 19.3 23.35 18.03 23.84L17.92 23.88L18.42 22.84C18.87 21.97 19.2 21.18 19.43 20.44ZM25.91 24.25C26.09 24.07 26.18 23.84 26.19 23.59C26.22 23.39 26.17 23.2 26.07 23.04C25.78 22.57 25.03 22.35 23.79 22.35L22.5 22.42L21.63 21.84C21 21.32 20.43 20.41 20.03 19.28L20.07 19.14C20.4 17.81 20.71 16.2 20.05 15.54C19.9693 15.4616 19.8738 15.4 19.7691 15.3588C19.6644 15.3176 19.5525 15.2976 19.44 15.3H19.2C18.83 15.3 18.5 15.69 18.41 16.07C18.04 17.4 18.26 18.13 18.63 19.34V19.35C18.38 20.23 18.06 21.25 17.55 22.28L16.59 24.08L15.7 24.57C14.5 25.32 13.93 26.16 13.82 26.69C13.78 26.88 13.8 27.05 13.87 27.23L13.9 27.28L14.38 27.59L14.82 27.7C15.63 27.7 16.55 26.75 17.79 24.63L17.97 24.56C19 24.23 20.28 24 22 23.81C23.03 24.32 24.24 24.55 25 24.55C25.44 24.55 25.74 24.44 25.91 24.25ZM25.5 23.54L25.59 23.65C25.58 23.75 25.55 23.76 25.5 23.78H25.46L25.27 23.8C24.81 23.8 24.1 23.61 23.37 23.29C23.46 23.19 23.5 23.19 23.6 23.19C25 23.19 25.4 23.44 25.5 23.54ZM16.33 25C15.68 26.19 15.09 26.85 14.64 27C14.69 26.62 15.14 25.96 15.85 25.31L16.33 25ZM19.35 18.09C19.12 17.19 19.11 16.46 19.28 16.04L19.35 15.92L19.5 15.97C19.67 16.21 19.69 16.53 19.59 17.07L19.56 17.23L19.4 18.05L19.35 18.09Z" fill="#EF5350"/>
</svg>
