<svg width="14" height="14" viewBox="0 0 14 14" fill="none" xmlns="http://www.w3.org/2000/svg">
<path d="M7.85677 11.9098L2.88162 12.8337C1.92736 13.0109 1.45022 13.0995 1.17535 12.8246C0.900479 12.5498 0.989081 12.0726 1.16628 11.1183L2.09015 6.1429C2.2383 5.34508 2.31237 4.94617 2.57535 4.70513C2.83832 4.4641 3.31926 4.41706 4.28113 4.32299C5.20818 4.23232 6.08553 3.91451 7 3L11 7.00036C10.0855 7.91488 9.76755 8.79163 9.67674 9.71871C9.58251 10.6807 9.53539 11.1617 9.29438 11.4246C9.05337 11.6876 8.65451 11.7617 7.85677 11.9098Z" stroke="#B8C4DB" stroke-width="1.5" stroke-linejoin="round"/>
<path d="M6.33317 9.14043C5.9602 9.07988 5.61914 8.91763 5.35071 8.6492M5.35071 8.6492C5.08229 8.38078 4.92004 8.03972 4.85949 7.66675M5.35071 8.6492L1.6665 12.3334" stroke="#B8C4DB" stroke-width="1.5" stroke-linecap="round"/>
<path d="M7 3C7.47487 2.2994 8.11806 1.1208 9.071 1.00732C9.72149 0.929858 10.2604 1.46874 11.3381 2.54652L11.4535 2.66185C12.5313 3.73962 13.0701 4.27851 12.9927 4.929C12.8792 5.88194 11.7006 6.52513 11 7" stroke="#B8C4DB" stroke-width="1.5" stroke-linejoin="round"/>
</svg>
