<svg width="18" height="18" viewBox="0 0 18 18" fill="none" xmlns="http://www.w3.org/2000/svg">
<path d="M1.5 16.5002L5.66667 12.3335" stroke="#626262" stroke-width="1.5" stroke-linecap="round" stroke-linejoin="round"/>
<path d="M10.0485 14.7264C6.92914 14.0181 3.98187 11.0709 3.27361 7.95149C3.1615 7.45769 3.10544 7.21079 3.26784 6.81022C3.43025 6.40965 3.62864 6.28571 4.02542 6.03782C4.92238 5.47745 5.89362 5.29931 6.90158 5.38846C8.31592 5.51356 9.0231 5.57611 9.37587 5.39231C9.72864 5.20851 9.96837 4.77872 10.4478 3.91915L11.0552 2.83027C11.4553 2.11298 11.6553 1.75433 12.1259 1.58526C12.5965 1.41619 12.8797 1.51857 13.4461 1.72334C14.7706 2.20221 15.7978 3.22945 16.2767 4.55398C16.4815 5.12038 16.5839 5.40358 16.4148 5.87416C16.2458 6.34474 15.8871 6.54479 15.1698 6.94489L14.0558 7.56624C13.1979 8.04477 12.7689 8.28404 12.5852 8.64026C12.4014 8.99648 12.4682 9.68826 12.6016 11.0718C12.6998 12.0892 12.5306 13.0669 11.9627 13.975C11.7146 14.3717 11.5905 14.5701 11.1901 14.7324C10.7896 14.8946 10.5426 14.8385 10.0485 14.7264Z" stroke="#626262" stroke-width="1.5" stroke-linecap="round" stroke-linejoin="round"/>
</svg>
