<svg width="20" height="22" viewBox="0 0 20 22" fill="none" xmlns="http://www.w3.org/2000/svg">
<path d="M1 4H6.42963C7.09834 4 7.7228 3.6658 8.09373 3.1094L8.90627 1.8906C9.2772 1.3342 9.90166 1 10.5704 1H15.0585C15.9193 1 16.6836 1.55086 16.9558 2.36754L17.5 4M19 4H6" stroke="#626262" stroke-width="1.5" stroke-linecap="round"/>
<path d="M17.5 4L16.8803 13.906C16.8588 14.2333 16.8387 14.5385 16.8185 14.8235M2.5 4L3.10461 13.8966C3.25945 16.3107 3.33688 17.5177 3.97868 18.3857C4.296 18.8149 4.7048 19.1771 5.17905 19.4493C6.1383 20 7.42312 20 9.99274 20H12.5" stroke="#626262" stroke-width="1.5" stroke-linecap="round"/>
<path d="M18 18C18 16.3431 16.6569 15 15 15C13.3431 15 12 16.3431 12 18C12 19.6569 13.3431 21 15 21C16.6569 21 18 19.6569 18 18Z" stroke="#626262" stroke-width="1.5"/>
</svg>
