<svg width="16" height="16" viewBox="0 0 16 16" fill="none" xmlns="http://www.w3.org/2000/svg">
<path d="M7.03366 2C4.46538 2.00463 3.1205 2.06768 2.26102 2.92716C1.3335 3.85468 1.3335 5.3475 1.3335 8.33315C1.3335 11.3188 1.3335 12.8116 2.26102 13.7391C3.18854 14.6667 4.68136 14.6667 7.66701 14.6667C10.6527 14.6667 12.1455 14.6667 13.073 13.7391C13.9325 12.8797 13.9955 11.5348 14.0002 8.9665" stroke="#A2A2A2" stroke-width="1.5" stroke-linecap="round" stroke-linejoin="round"/>
<path d="M7.37055 8.66683C6.88831 2.57773 11.2017 0.850522 14.6538 1.44309C14.7932 3.46107 13.8058 4.21671 11.9255 4.56566C12.2885 4.94507 12.9302 5.42252 12.8609 6.01936C12.8117 6.44407 12.5233 6.65245 11.9464 7.06922C10.6822 7.98256 9.21778 8.55852 7.37055 8.66683Z" stroke="#A2A2A2" stroke-width="1.5" stroke-linecap="round" stroke-linejoin="round"/>
<path d="M6 11.3335C7.33333 7.66683 8.64025 6.42441 10 5.3335" stroke="#A2A2A2" stroke-width="1.5" stroke-linecap="round" stroke-linejoin="round"/>
</svg>
