<svg width="1399" height="289" viewBox="0 0 1399 289" fill="none" xmlns="http://www.w3.org/2000/svg">
<path d="M38.9367 457V118.983C38.9367 79.2409 50.4088 49.7412 73.353 30.4845C96.2971 10.8181 130.304 0.984863 175.373 0.984863H219.007V83.338H172.914C163.081 83.338 155.501 86.0012 150.175 91.3275C144.849 96.6539 142.185 104.234 142.185 114.067V457H38.9367ZM0.833008 206.253V125.129H223.924V206.253H0.833008Z" fill="url(#paint0_linear_2144_53736)"/>
<path d="M421.731 457V357.439H403.294V251.117C403.294 235.548 399.606 224.076 392.231 216.701C385.266 208.916 373.589 205.024 357.201 205.024C349.416 205.024 337.944 205.229 322.784 205.639C307.625 206.048 291.646 206.663 274.847 207.482C258.049 208.302 242.685 209.121 228.754 209.941V116.525C238.587 115.706 250.264 114.886 263.785 114.067C277.306 113.247 291.236 112.633 305.576 112.223C320.326 111.813 333.847 111.609 346.138 111.609C380.964 111.609 410.464 116.73 434.637 126.973C459.22 137.216 477.862 152.58 490.564 173.066C503.675 193.552 510.23 219.569 510.23 251.117V457H421.731ZM314.18 465.604C290.417 465.604 269.316 461.302 250.879 452.698C232.442 444.094 217.897 431.803 207.244 415.824C197.001 399.435 191.88 379.973 191.88 357.439C191.88 332.036 198.64 311.551 212.161 295.981C225.681 280.002 244.324 268.325 268.087 260.95C291.851 253.576 319.097 249.888 349.826 249.888H415.585V307.658H349.826C334.666 307.658 322.989 311.551 314.795 319.335C306.601 326.71 302.503 336.748 302.503 349.449C302.503 361.741 306.601 371.779 314.795 379.564C322.989 386.939 334.666 390.626 349.826 390.626C359.659 390.626 368.263 388.987 375.638 385.709C383.423 382.022 389.773 375.876 394.69 367.272C399.606 358.668 402.474 346.786 403.294 331.627L429.106 356.21C427.057 379.564 421.321 399.435 411.898 415.824C402.884 431.803 390.183 444.094 373.794 452.698C357.815 461.302 337.944 465.604 314.18 465.604Z" fill="url(#paint1_linear_2144_53736)"/>
<path d="M754.591 468.063C726.73 468.063 702.352 462.327 681.457 450.854C660.971 439.382 644.787 422.584 632.905 400.459C621.433 378.334 615.287 351.293 614.468 319.335H624.301V457H535.802V8.35979H647.655V239.44L623.072 264.023C624.301 230.836 630.652 202.566 642.124 179.212C653.596 155.858 669.37 138.24 689.446 126.358C709.932 114.067 733.491 107.921 760.122 107.921C783.066 107.921 803.757 112.223 822.194 120.827C840.632 129.022 856.201 140.903 868.902 156.473C882.013 171.632 892.051 189.66 899.016 210.555C905.982 231.451 909.464 254.395 909.464 279.388V294.138C909.464 319.13 905.982 342.279 899.016 363.585C892.051 384.48 881.808 402.918 868.288 418.896C854.767 434.466 838.378 446.552 819.122 455.156C800.275 463.761 778.764 468.063 754.591 468.063ZM722.633 375.876C737.383 375.876 750.289 372.189 761.351 364.814C772.824 357.029 781.632 346.377 787.778 332.856C794.334 319.335 797.611 303.971 797.611 286.763C797.611 269.145 794.334 253.985 787.778 241.284C781.632 228.173 773.028 218.135 761.966 211.17C750.904 203.795 737.793 200.107 722.633 200.107C709.112 200.107 696.411 203.18 684.529 209.326C673.057 215.472 663.634 224.486 656.259 236.367C648.884 248.249 645.197 262.589 645.197 279.388V300.283C645.197 316.262 649.089 329.988 656.874 341.46C664.658 352.522 674.491 361.126 686.373 367.272C698.255 373.008 710.342 375.876 722.633 375.876Z" fill="url(#paint2_linear_2144_53736)"/>
<path d="M926.677 457V8.35979H1038.53V457H926.677ZM888.573 89.4838V8.35979H1038.53V89.4838H888.573Z" fill="url(#paint3_linear_2144_53736)"/>
<path d="M1231.03 469.292C1202.35 469.292 1176.94 464.375 1154.82 454.542C1132.69 444.709 1114.05 431.393 1098.89 414.594C1083.73 397.796 1072.06 378.949 1063.86 358.053C1056.08 337.158 1052.19 315.648 1052.19 293.523V281.231C1052.19 258.287 1056.08 236.367 1063.86 215.472C1072.06 194.167 1083.53 175.32 1098.28 158.931C1113.44 142.542 1131.88 129.636 1153.59 120.213C1175.31 110.379 1199.89 105.463 1227.34 105.463C1263.8 105.463 1294.74 113.657 1320.14 130.046C1345.54 146.435 1365 168.15 1378.52 195.191C1392.05 221.822 1398.81 250.912 1398.81 282.461V318.106H1098.89V257.878H1334.28L1295.56 284.919C1295.56 265.662 1292.89 249.478 1287.57 236.367C1282.65 222.847 1275.07 212.604 1264.83 205.639C1255 198.673 1242.5 195.191 1227.34 195.191C1212.59 195.191 1199.68 198.673 1188.62 205.639C1177.97 212.194 1169.77 222.437 1164.04 236.367C1158.3 249.888 1155.43 267.096 1155.43 287.992C1155.43 306.839 1158.1 323.228 1163.42 337.158C1168.75 350.679 1176.94 361.126 1188.01 368.501C1199.07 375.876 1213.41 379.564 1231.03 379.564C1246.6 379.564 1259.3 376.9 1269.13 371.574C1279.37 366.248 1286.54 359.078 1290.64 350.064H1392.66C1387.74 373.008 1377.91 393.494 1363.16 411.522C1348.82 429.549 1330.38 443.684 1307.85 453.927C1285.72 464.17 1260.12 469.292 1231.03 469.292Z" fill="url(#paint4_linear_2144_53736)"/>
<defs>
<linearGradient id="paint0_linear_2144_53736" x1="705" y1="-15.4999" x2="702.324" y2="546.487" gradientUnits="userSpaceOnUse">
<stop stop-color="#030304" stop-opacity="0"/>
<stop offset="1" stop-color="#CACACA"/>
</linearGradient>
<linearGradient id="paint1_linear_2144_53736" x1="705" y1="-15.4999" x2="702.324" y2="546.487" gradientUnits="userSpaceOnUse">
<stop stop-color="#030304" stop-opacity="0"/>
<stop offset="1" stop-color="#CACACA"/>
</linearGradient>
<linearGradient id="paint2_linear_2144_53736" x1="705" y1="-15.4999" x2="702.324" y2="546.487" gradientUnits="userSpaceOnUse">
<stop stop-color="#030304" stop-opacity="0"/>
<stop offset="1" stop-color="#CACACA"/>
</linearGradient>
<linearGradient id="paint3_linear_2144_53736" x1="705" y1="-15.4999" x2="702.324" y2="546.487" gradientUnits="userSpaceOnUse">
<stop stop-color="#030304" stop-opacity="0"/>
<stop offset="1" stop-color="#CACACA"/>
</linearGradient>
<linearGradient id="paint4_linear_2144_53736" x1="705" y1="-15.4999" x2="702.324" y2="546.487" gradientUnits="userSpaceOnUse">
<stop stop-color="#030304" stop-opacity="0"/>
<stop offset="1" stop-color="#CACACA"/>
</linearGradient>
</defs>
</svg>
